<svg width="560" height="308" viewBox="0 0 560 308" fill="none" xmlns="http://www.w3.org/2000/svg">
<path d="M63.2891 304L203.027 303.27L240.275 303.259L252.615 303.254L289.934 303.243L460.429 303.196C460.429 303.196 499.427 252.869 457.771 205.069C414.581 155.509 392.654 197.82 360.76 114.311C290.758 -68.9769 16.4961 52.7129 103.155 202.141C134.358 255.945 41.7345 227.347 63.2891 304Z" fill="#F3F9F0" fill-opacity="0.33"/>
<path d="M232.827 133.183C232.827 133.183 227.959 148.733 225.113 147.651C222.268 146.57 231.791 130.714 231.791 130.714C231.791 130.714 221.985 117.41 216.549 115.168C216.549 115.168 217.362 133.303 214.871 131.556C212.38 129.809 210.655 110.977 210.655 110.977C210.655 110.977 198.477 101.321 192.053 108.153C185.629 114.986 187.003 120.834 188.738 122.394C190.474 123.954 203.404 130.596 202.183 132.082C200.963 133.568 190.872 131.631 186.834 127.571C186.834 127.571 185.166 143.538 192.525 146.586C199.884 149.634 204.358 146.46 208.871 148.426C213.384 150.392 215.932 153.236 213.144 153.251C210.355 153.265 203.434 148.593 198.349 149.705C193.264 150.817 189.454 151.143 195.248 155.922C201.043 160.701 213.16 166.058 218.155 162.307C218.373 162.143 218.581 161.987 218.78 161.838C218.593 162.021 218.383 162.178 218.155 162.307C218.983 163.641 219.008 167.923 218.895 171.139C218.841 171.668 218.802 172.418 218.785 173.457V173.457C218.758 173.916 218.732 174.29 218.714 174.55C217.956 181.486 211.475 190.72 211.475 190.72L212.666 191.829C221.053 183.506 220.013 172.464 220.013 172.464C219.968 164.122 223.15 158.556 223.15 158.556C223.15 158.556 239.382 158.202 238.599 145.629C238.599 145.629 237.032 137.332 232.827 133.183Z" fill="#B4DBC7"/>
<path d="M185.006 191.17C185.006 191.17 208.885 202.455 206.505 206.757C204.124 211.058 180.805 192.268 180.805 192.268C180.805 192.268 157.221 204.927 152.393 213.104C152.393 213.104 181.707 215.899 178.338 219.484C174.969 223.068 144.33 221.572 144.33 221.572C144.33 221.572 126.07 238.845 135.596 250.648C145.122 262.451 154.826 261.576 157.723 259.156C160.62 256.737 174.208 237.583 176.32 239.868C178.431 242.152 173.043 257.832 165.608 263.366C165.608 263.366 190.88 269.634 197.437 258.568C203.995 247.502 199.905 239.64 204.083 232.875C208.26 226.109 213.403 222.682 212.797 227.139C212.192 231.597 203.123 241.596 203.762 249.97C204.401 258.343 204.065 264.503 213.049 256.326C222.033 248.149 233.374 230.003 228.476 221.179C228.262 220.794 228.058 220.426 227.863 220.075C228.115 220.415 228.321 220.786 228.476 221.179C230.806 220.158 237.69 221.085 242.829 221.991C243.667 222.196 244.864 222.428 246.528 222.69H246.528C247.259 222.837 247.854 222.962 248.268 223.05C259.238 225.825 272.608 238.262 272.608 238.262L274.658 236.61C263.182 221.335 245.21 220.504 245.21 220.504C231.8 218.692 223.577 212.354 223.577 212.354C223.577 212.354 226.673 186.348 206.299 184.76C206.299 184.76 192.62 185.39 185.006 191.17Z" fill="#B4DAC7" fill-opacity="0.72"/>
<path d="M367.254 159.522C367.698 145.672 344.825 143.075 344.825 143.075C344.825 143.075 323.268 160.985 318.829 160.215C314.389 159.446 334.261 141.314 334.261 141.314C326.221 137.991 302.005 141.687 302.005 141.687C302.005 141.687 295.34 168.212 291.227 166.377C287.115 164.541 298.33 143.19 298.33 143.19C289.577 143.146 279.237 150.195 279.237 150.195C265.229 162.537 281.845 179.836 281.845 179.836C281.845 179.836 279.337 188.979 270.54 197.663L270.54 197.663C270.54 197.663 268.685 199.196 266.398 202.066L268.584 202.732C268.942 202.202 269.312 201.698 269.696 201.221C269.696 201.219 269.697 201.217 269.698 201.216C269.7 201.214 269.701 201.213 269.703 201.212C269.709 201.205 269.714 201.199 269.72 201.192C269.973 200.9 270.335 200.487 270.782 199.985L270.784 199.983C270.784 199.981 270.785 199.982 270.786 199.98C271.853 198.88 272.599 198.055 273.098 197.446C273.099 197.444 273.101 197.442 273.102 197.44C276.356 193.958 280.872 189.504 283.138 188.971C283.034 188.599 282.979 188.215 282.976 187.829C283.027 188.193 283.081 188.573 283.138 188.971C284.43 198.106 302.73 205.137 313.807 206.18C324.883 207.223 321.238 202.907 317.083 196.44C312.928 189.972 300.784 187.644 297.881 184.72C294.978 181.796 300.627 181.478 307.413 184.127C314.198 186.777 315.55 194.765 326.449 199.25C337.347 203.735 352.349 185.286 352.349 185.286C343.864 185.323 331.272 176.826 331.554 173.998C331.836 171.17 352.334 177.705 355.786 177.883C359.238 178.06 366.81 173.373 367.254 159.522Z" fill="#B4DAC7" fill-opacity="0.72"/>
<path d="M298.492 102.769C301.008 109.381 322.577 126.746 322.577 126.746C322.577 126.746 329.607 121.051 336.117 114.917C340.99 110.377 345.544 105.597 346.622 102.769C349.178 96.1975 346.462 86.7974 337.036 85.2045C327.65 83.6107 322.577 93.4096 322.577 93.4096C322.577 93.4096 317.504 83.6107 308.078 85.2045C306.561 85.4473 305.099 85.9601 303.764 86.7185C297.893 89.9839 296.415 97.3527 298.492 102.769Z" fill="#E15A5F"/>
<path d="M237.957 55.3515C237.623 54.336 233.639 43.5065 216.659 47.7991C216.659 47.7991 225.212 46.3916 227.691 49.6194C227.691 49.6194 220.763 46.7506 216.596 49.5258C212.429 52.3011 212.058 61.1286 212.795 63.7832C213.532 66.4378 218.542 74.2328 221.661 74.1154C222.842 74.071 224.09 73.6296 225.186 73.099C224.731 74.6407 224.366 76.2077 224.093 77.792C221.366 93.5334 232.177 105.014 237.427 101.879C240.794 99.8683 243.622 105.797 243.622 105.797L270.728 66.8412C270.728 66.8412 249.953 43.6587 237.957 55.3515Z" fill="#9D4E14"/>
<path d="M276.145 206.077C276.007 210.262 283.459 223.92 287.735 235.723L287.737 235.725C290.494 243.342 293.219 250.405 294.685 254.152C295.601 256.487 296.315 258.895 296.819 261.351C298.093 267.585 300.167 280.647 300.852 301.876C300.859 302.159 300.868 302.445 300.877 302.73L262.361 302.718L262.208 301.876L261.363 297.267L261.358 297.242L262.176 277.197L259.746 273.47L252.782 276.088L249.7 301.876L249.601 302.714L211.012 302.702C211.012 302.426 211.012 302.15 211.009 301.876C210.998 295.156 210.991 289.424 210.989 284.538C210.975 267.866 213.984 251.329 219.869 235.722C224.347 223.861 230.973 211.451 229.581 205.621C229.258 204.272 224.585 192.452 222.375 181.227C222.144 180.057 221.915 178.879 221.688 177.706C221.631 177.934 221.576 178.165 221.521 178.395C217.951 193.251 213.297 212.524 212.42 215.714C210.959 221.015 197.503 261.81 197.503 261.81H190.953C190.953 261.81 195.048 221.832 198.732 211.634C202.415 201.436 204.229 163.33 207.737 146.772C209.562 138.169 212.436 134.413 217.16 131.944L217.163 131.942V131.939C219.583 130.675 222.489 129.749 225.989 128.681C228.198 128.005 230.644 127.275 233.356 126.369C237.267 125.062 240.904 123.06 241.994 119.092C242.965 115.557 243.665 110.902 243.702 105.32V105.318C243.711 104.189 243.691 103.022 243.64 101.818V101.811L244.799 101.989L245.91 102.165L264.251 105.079V105.081C264.251 105.081 264.244 105.304 264.232 105.708C264.23 105.77 264.228 105.838 264.225 105.911V105.943C264.223 106.007 264.221 106.076 264.221 106.149C264.216 106.277 264.214 106.418 264.209 106.569C264.207 106.671 264.205 106.779 264.203 106.89C264.196 107.253 264.187 107.662 264.18 108.111C264.177 108.228 264.175 108.346 264.175 108.467C264.175 108.527 264.173 108.586 264.173 108.648C264.17 108.83 264.168 109.015 264.166 109.207V109.234C264.161 109.583 264.159 109.946 264.157 110.32C264.152 111.108 264.152 111.95 264.159 112.821C264.161 113.198 264.166 113.579 264.17 113.965C264.173 114.051 264.175 114.138 264.175 114.227C264.182 114.599 264.189 114.975 264.198 115.352C264.209 115.854 264.223 116.358 264.241 116.858C264.356 120.126 263.88 122.542 264.77 124.208C265.746 126.036 270.898 127.335 276.553 129.703C279.44 130.915 282.461 132.403 285.122 134.386C288.468 136.875 291.246 140.145 292.48 144.616C296.984 160.934 299.952 201.436 303.635 211.634C307.319 221.832 311.414 261.81 311.414 261.81H304.864C304.864 261.81 291.408 221.015 289.947 215.714C289.496 214.076 288.049 208.186 286.262 200.832C284.632 194.116 282.717 186.179 281.025 179.142C280.865 178.473 280.706 177.812 280.549 177.159C280.462 179.005 280.377 180.849 280.295 182.66C279.786 193.707 276.241 203.129 276.145 206.077Z" fill="#FFB27D"/>
<path d="M264.35 105.589C264.35 105.589 264.133 111.451 264.34 116.959C253.251 117.056 247.016 107.78 244.406 102.608L264.35 105.589Z" fill="#ED985F"/>
<path d="M268.074 110.551C268.074 110.551 242.619 111.914 242.006 96.2101C241.393 80.5065 237.695 70.1064 253.921 68.5725C270.146 67.0385 273.54 72.91 275.033 78.1022C276.525 83.2944 274.679 109.792 268.074 110.551Z" fill="#FFB27D"/>
<path d="M273.948 69.397C269.827 64.7906 266.887 65.9451 265.272 67.4365C251.044 60.3333 242.487 71.9407 242.487 71.9407C241.209 83.344 233.234 90.1471 233.234 90.1471C233.234 90.1471 237.991 92.8299 248.604 89.6882C251.845 88.7285 254.681 86.3049 257.059 83.4049C252.995 90.7989 247.289 96.2297 247.289 96.2297C259.867 89.8651 264.339 71.962 264.78 70.0702C266.39 71.4027 269.572 74.3095 270.62 77.236C272.043 81.213 272.928 89.4764 275.344 89.104C275.344 89.104 280.13 76.3052 273.948 69.397Z" fill="#9D4E14"/>
<path d="M191.034 260.473C191.034 260.473 185.617 269.7 185.408 272.412C185.198 275.123 185.957 284.392 185.957 284.392C185.957 284.392 187.975 283.807 188.394 279.454C188.813 275.1 195.18 272.486 196.461 269.631C197.742 266.776 197.241 260.848 197.241 260.848L191.034 260.473Z" fill="#FFB27D"/>
<path d="M197.651 262.068C197.651 262.068 199.545 269.095 198.727 271.459C197.909 273.822 197.023 277.566 195.738 277.19C194.453 276.814 193.348 269.714 193.348 269.714L197.651 262.068Z" fill="#FFB27D"/>
<path d="M186.965 272.432C186.894 272.835 182.977 283.595 182.977 283.595C182.977 283.595 186.211 283.616 186.422 282.122C186.633 280.628 186.965 272.432 186.965 272.432Z" fill="#FFB27D"/>
<path d="M310.982 262.068C310.982 262.068 316.737 270.988 316.96 273.608C317.182 276.229 316.375 285.189 316.375 285.189C316.375 285.189 314.232 284.624 313.787 280.415C313.341 276.207 306.577 273.68 305.216 270.921C303.855 268.161 304.306 262.068 304.306 262.068H310.982Z" fill="#FFB27D"/>
<path d="M304.718 262.865C304.718 262.865 302.824 270.263 303.643 272.75C304.461 275.238 305.346 279.179 306.631 278.783C307.916 278.387 309.022 270.914 309.022 270.914L304.718 262.865Z" fill="#FFB27D"/>
<path d="M315.406 274.027C315.478 274.401 319.395 284.392 319.395 284.392C319.395 284.392 316.161 284.412 315.95 283.025C315.739 281.638 315.406 274.027 315.406 274.027Z" fill="#FFB27D"/>
<path d="M219.566 235.757C219.566 235.757 246.039 243.861 287.557 235.757C287.557 235.757 299.356 252.951 304.236 301.932H261.901L257.973 278.311L253.155 278.387L250.326 301.932H206.91C206.91 301.932 208.134 257.899 219.566 235.757Z" fill="#656DAA"/>
<path d="M281.444 156.084C281.921 161.152 283.546 165.959 281.003 179.178C280.79 180.285 280.547 181.453 280.274 182.683C280.274 182.683 254.996 190.876 222.952 182.683C222.952 182.683 222.77 182.155 222.484 181.255C222.253 180.53 221.956 179.565 221.632 178.435C220.322 173.896 218.57 166.741 219.011 162.216C219.696 155.17 224.46 141.215 217.281 132.169L217.284 132.167V132.164C219.699 130.905 222.598 129.983 226.09 128.919C226.09 128.919 232.469 148.374 241.172 149.397C246.606 150.012 252.083 150.155 257.541 149.824C257.541 149.824 267.832 150.17 271.717 143.124C274.596 137.901 276.382 130.592 276.54 129.937C279.421 131.144 282.435 132.626 285.09 134.601C283.989 137.24 280.639 147.583 281.444 156.084Z" fill="white"/>
<path d="M301.801 137.135C301.795 137.115 301.788 137.093 301.781 137.073C301.799 137.06 301.808 137.08 301.801 137.135Z" fill="white"/>
<path d="M199.555 79.6962C199.221 79.7631 195.835 72.1052 187.378 75.2568C187.378 75.2568 186.043 66.8231 176.187 67.3138C168.185 67.712 167.375 76.4486 167.375 76.4486C167.375 76.4486 160.33 74.9696 157.492 79.6966L199.555 79.6962Z" fill="white"/>
<path d="M170.679 86.0296C170.679 81.3474 168.916 76.8359 165.738 73.3883C162.561 69.9407 158.202 67.8082 153.523 67.413C156.495 66.398 159.666 66.1049 162.774 66.558C165.881 67.011 168.836 68.1972 171.391 70.0179C173.947 71.8387 176.029 74.2413 177.466 77.0262C178.903 79.811 179.653 82.8977 179.653 86.0296C179.653 89.1615 178.903 92.2481 177.466 95.033C176.029 97.8178 173.947 100.22 171.391 102.041C168.836 103.862 165.881 105.048 162.774 105.501C159.666 105.954 156.495 105.661 153.523 104.646C158.202 104.251 162.561 102.118 165.738 98.6708C168.915 95.2232 170.679 90.7118 170.679 86.0296Z" fill="#AFCDFB"/>
<path d="M180.615 99.7142C180.005 99.8365 173.816 85.8398 158.359 91.6002C158.359 91.6002 155.919 76.1854 137.904 77.0822C123.278 77.8103 121.799 93.7786 121.799 93.7786C121.799 93.7786 108.921 91.0753 103.734 99.715L180.615 99.7142Z" fill="white"/>
<path d="M242.137 199.92C234.62 205.909 232.663 216.078 237.509 223.047C237.816 223.489 238.468 223.554 238.938 223.179C239.404 222.808 239.536 222.177 239.234 221.737C235.017 215.603 236.75 206.688 243.348 201.432C250.222 195.956 259.815 196.494 264.732 202.631L266.425 201.283C260.841 194.312 249.944 193.701 242.137 199.92Z" fill="white"/>
<path d="M262.697 203.57L267.182 204.632C267.269 204.65 267.359 204.647 267.445 204.625C267.531 204.604 267.611 204.563 267.679 204.506C267.747 204.449 267.801 204.378 267.838 204.297C267.874 204.217 267.892 204.129 267.89 204.04L267.601 199.639C267.578 199.286 267.159 199.137 266.859 199.376L262.58 202.785C262.272 203.031 262.339 203.485 262.697 203.57Z" fill="white"/>
<path d="M266.776 230.196C274.293 224.208 276.25 214.038 271.405 207.069C271.097 206.627 270.445 206.562 269.975 206.937C269.509 207.308 269.377 207.939 269.679 208.379C273.896 214.514 272.163 223.429 265.565 228.684C258.691 234.16 249.098 233.622 244.181 227.485L242.488 228.834C248.072 235.804 258.969 236.415 266.776 230.196Z" fill="white"/>
<path d="M246.211 226.546L241.726 225.484C241.639 225.467 241.549 225.469 241.463 225.491C241.377 225.513 241.298 225.553 241.23 225.61C241.162 225.667 241.107 225.739 241.071 225.819C241.034 225.9 241.016 225.988 241.019 226.076L241.308 230.477C241.331 230.831 241.749 230.979 242.049 230.741L246.328 227.332C246.637 227.086 246.569 226.631 246.211 226.546Z" fill="white"/>
<path d="M120.289 285.751C120.29 282.88 119.519 280.062 118.056 277.589C116.593 275.117 114.492 273.08 111.972 271.692V269.689H104.182C102.065 269.686 99.9676 270.099 98.0106 270.905C96.0536 271.711 94.2752 272.893 92.7769 274.385C91.2787 275.877 90.0901 277.649 89.2792 279.599C88.4682 281.549 88.0508 283.64 88.0508 285.751C88.0508 287.862 88.4682 289.953 89.2792 291.903C90.0901 293.854 91.2787 295.625 92.7769 297.117C94.2752 298.609 96.0536 299.791 98.0106 300.597C99.9676 301.403 102.065 301.816 104.182 301.813H111.972V299.81C114.492 298.422 116.593 296.386 118.056 293.913C119.519 291.44 120.29 288.622 120.289 285.751Z" fill="#5D73CE"/>
<path d="M111.974 301.813C120.87 301.813 128.082 294.622 128.082 285.751C128.082 276.88 120.87 269.689 111.974 269.689C103.079 269.689 95.8672 276.88 95.8672 285.751C95.8672 294.622 103.079 301.813 111.974 301.813Z" fill="#4456BC"/>
<path d="M161.94 292.296H111.794C110.053 292.296 108.384 291.606 107.153 290.379C105.922 289.151 105.23 287.487 105.23 285.751C105.23 284.015 105.922 282.351 107.153 281.123C108.384 279.896 110.053 279.206 111.794 279.206H161.94C163.68 279.206 165.35 279.896 166.58 281.123C167.811 282.351 168.503 284.015 168.503 285.751C168.503 287.487 167.811 289.151 166.58 290.379C165.35 291.606 163.68 292.296 161.94 292.296Z" fill="#3641A3"/>
<path d="M162.168 285.751C162.169 282.88 161.398 280.062 159.935 277.589C158.472 275.117 156.371 273.08 153.851 271.692V269.689H146.061C143.944 269.686 141.847 270.099 139.89 270.905C137.933 271.711 136.154 272.893 134.656 274.385C133.158 275.877 131.969 277.649 131.158 279.599C130.347 281.549 129.93 283.64 129.93 285.751C129.93 287.862 130.347 289.953 131.158 291.903C131.969 293.854 133.158 295.625 134.656 297.117C136.154 298.609 137.933 299.791 139.89 300.597C141.847 301.403 143.944 301.816 146.061 301.813H153.851V299.81C156.371 298.422 158.472 296.386 159.935 293.913C161.398 291.44 162.169 288.622 162.168 285.751Z" fill="#5D73CE"/>
<path d="M153.849 301.813C162.745 301.813 169.957 294.622 169.957 285.751C169.957 276.88 162.745 269.689 153.849 269.689C144.954 269.689 137.742 276.88 137.742 285.751C137.742 294.622 144.954 301.813 153.849 301.813Z" fill="#4456BC"/>
<path d="M155.284 292.65C159.104 292.272 161.895 288.878 161.517 285.068C161.138 281.258 157.735 278.476 153.914 278.853C150.093 279.23 147.303 282.625 147.681 286.434C148.059 290.244 151.463 293.027 155.284 292.65Z" fill="#3641A3"/>
<path d="M307.156 110.835L304.932 99.1881L303.961 104.163H290.852V103.377H303.311L304.94 95.0259L307.266 107.205L308.312 103.094H310.576L312.12 95.9238L314.096 106.856L315.136 102.67H319.811L321.532 97.0441L323.037 106.895L324.247 102.67H328.116L329.252 96.4927L331.694 106.211L332.578 102.67H337.581L337.843 105.62L340.598 94.8785L342.409 102.698H350.546V103.485H341.781L340.559 98.2063L337.464 110.274L336.859 103.457H333.195L331.696 109.457L329.371 100.205L328.774 103.457H324.842L322.802 110.58L321.274 100.582L320.395 103.457H315.753L313.975 110.619L312.052 99.984L311.213 103.88H308.926L307.156 110.835Z" fill="white"/>
<path d="M156.748 171.834H143.01L136.141 159.97L143.01 148.106H156.748L163.617 159.97L156.748 171.834ZM143.529 170.938H156.229L162.579 159.97L156.229 149.002H143.529L137.179 159.97L143.529 170.938Z" fill="#C4C4C4"/>
<path d="M117.667 194.442L116.888 193.993L123.368 182.802L117.018 171.834H104.059V170.937H117.537L124.406 182.802L117.667 194.442Z" fill="#C4C4C4"/>
<path d="M117.536 171.834H103.798L97.0586 160.194L97.8369 159.746L104.317 170.937H117.017L123.367 159.97L117.017 149.002H104.057V148.106H117.536L124.405 159.97L117.536 171.834Z" fill="#C4C4C4"/>
<path d="M162.579 183.026L155.84 171.386L162.709 159.522H176.447L183.186 171.162L182.408 171.61L175.928 160.418H163.228L156.878 171.386L163.357 182.578L162.579 183.026Z" fill="#C4C4C4"/>
<path d="M137.145 183.25H123.667V182.353H136.626L142.976 171.386L136.626 160.418H123.926L117.446 171.61L116.668 171.162L123.407 159.522H137.145L144.014 171.386L137.145 183.25Z" fill="#C4C4C4"/>
<path d="M176.188 160.418H162.709L155.84 148.554L162.709 136.69H176.188V137.586H163.228L156.878 148.554L163.228 159.522H176.188V160.418Z" fill="#C4C4C4"/>
<path d="M135.656 159.714C135.656 159.485 135.724 159.261 135.852 159.071C135.979 158.88 136.161 158.732 136.373 158.644C136.585 158.557 136.819 158.534 137.044 158.578C137.269 158.623 137.476 158.733 137.638 158.895C137.801 159.057 137.911 159.263 137.956 159.488C138.001 159.713 137.978 159.945 137.89 160.157C137.802 160.368 137.653 160.549 137.462 160.676C137.271 160.804 137.047 160.872 136.817 160.872C136.509 160.872 136.214 160.75 135.996 160.532C135.779 160.315 135.656 160.021 135.656 159.714Z" fill="#ABABAB"/>
<path d="M122.547 159.714C122.547 159.485 122.615 159.261 122.743 159.071C122.87 158.88 123.051 158.732 123.264 158.644C123.476 158.557 123.709 158.534 123.934 158.578C124.16 158.623 124.367 158.733 124.529 158.895C124.691 159.057 124.802 159.263 124.847 159.488C124.891 159.713 124.868 159.945 124.781 160.157C124.693 160.368 124.544 160.549 124.353 160.676C124.162 160.804 123.938 160.872 123.708 160.872C123.4 160.872 123.105 160.75 122.887 160.532C122.669 160.315 122.547 160.021 122.547 159.714Z" fill="#ABABAB"/>
<path d="M122.547 182.69C122.547 182.461 122.615 182.237 122.743 182.046C122.87 181.856 123.051 181.708 123.264 181.62C123.476 181.532 123.709 181.509 123.934 181.554C124.16 181.599 124.367 181.709 124.529 181.871C124.691 182.033 124.802 182.239 124.847 182.464C124.891 182.688 124.868 182.921 124.781 183.133C124.693 183.344 124.544 183.525 124.353 183.652C124.162 183.779 123.938 183.847 123.708 183.847C123.4 183.847 123.105 183.725 122.887 183.508C122.669 183.291 122.547 182.997 122.547 182.69Z" fill="#ABABAB"/>
<path d="M115.957 193.999C115.957 193.77 116.025 193.546 116.153 193.356C116.28 193.165 116.462 193.017 116.674 192.929C116.886 192.842 117.119 192.819 117.345 192.863C117.57 192.908 117.777 193.018 117.939 193.18C118.101 193.342 118.212 193.548 118.257 193.773C118.302 193.998 118.279 194.23 118.191 194.442C118.103 194.653 117.954 194.834 117.763 194.961C117.572 195.089 117.348 195.157 117.118 195.157C116.81 195.157 116.515 195.035 116.297 194.817C116.079 194.6 115.957 194.306 115.957 193.999Z" fill="#ABABAB"/>
<path d="M136.817 183.847C137.458 183.847 137.978 183.329 137.978 182.69C137.978 182.05 137.458 181.532 136.817 181.532C136.176 181.532 135.656 182.05 135.656 182.69C135.656 183.329 136.176 183.847 136.817 183.847Z" fill="#ABABAB"/>
<path d="M142.172 171.202C142.172 170.973 142.24 170.749 142.368 170.559C142.495 170.368 142.676 170.22 142.889 170.132C143.101 170.044 143.334 170.021 143.559 170.066C143.785 170.111 143.992 170.221 144.154 170.383C144.316 170.545 144.427 170.751 144.472 170.976C144.516 171.2 144.493 171.433 144.406 171.645C144.318 171.856 144.169 172.037 143.978 172.164C143.787 172.292 143.563 172.36 143.333 172.36C143.18 172.36 143.029 172.33 142.889 172.271C142.748 172.213 142.62 172.128 142.512 172.02C142.404 171.913 142.319 171.785 142.26 171.645C142.202 171.504 142.172 171.354 142.172 171.202Z" fill="#ABABAB"/>
<path d="M155.168 171.202C155.168 170.973 155.236 170.749 155.364 170.558C155.491 170.368 155.673 170.22 155.885 170.132C156.097 170.044 156.33 170.021 156.556 170.066C156.781 170.111 156.988 170.221 157.15 170.383C157.312 170.545 157.423 170.751 157.468 170.976C157.513 171.2 157.49 171.433 157.402 171.645C157.314 171.856 157.165 172.037 156.974 172.164C156.783 172.292 156.559 172.359 156.329 172.359C156.021 172.359 155.726 172.237 155.508 172.02C155.29 171.803 155.168 171.509 155.168 171.202Z" fill="#ABABAB"/>
<path d="M117.477 172.359C118.119 172.359 118.638 171.841 118.638 171.202C118.638 170.562 118.119 170.044 117.477 170.044C116.836 170.044 116.316 170.562 116.316 171.202C116.316 171.841 116.836 172.359 117.477 172.359Z" fill="#ABABAB"/>
<path d="M102.898 171.202C102.898 170.973 102.967 170.749 103.094 170.559C103.222 170.368 103.403 170.22 103.615 170.132C103.827 170.044 104.061 170.021 104.286 170.066C104.511 170.111 104.718 170.221 104.88 170.383C105.043 170.545 105.153 170.751 105.198 170.976C105.243 171.2 105.22 171.433 105.132 171.645C105.044 171.856 104.895 172.037 104.705 172.164C104.514 172.292 104.289 172.36 104.059 172.36C103.752 172.36 103.456 172.238 103.239 172.02C103.021 171.803 102.898 171.509 102.898 171.202Z" fill="#ABABAB"/>
<path d="M96.4805 160.311C96.4805 160.082 96.5486 159.858 96.6761 159.668C96.8037 159.478 96.985 159.329 97.1972 159.242C97.4094 159.154 97.6428 159.131 97.868 159.176C98.0933 159.22 98.3001 159.331 98.4625 159.493C98.6249 159.654 98.7355 159.861 98.7803 160.085C98.8251 160.31 98.8021 160.543 98.7142 160.754C98.6263 160.966 98.4775 161.147 98.2866 161.274C98.0956 161.401 97.8711 161.469 97.6415 161.469C97.3336 161.469 97.0383 161.347 96.8205 161.13C96.6028 160.913 96.4805 160.618 96.4805 160.311Z" fill="#ABABAB"/>
<path d="M103.297 148.554C103.297 148.325 103.365 148.101 103.493 147.911C103.62 147.72 103.801 147.572 104.014 147.484C104.226 147.397 104.459 147.374 104.684 147.418C104.91 147.463 105.117 147.573 105.279 147.735C105.441 147.897 105.552 148.104 105.597 148.328C105.642 148.553 105.619 148.786 105.531 148.997C105.443 149.209 105.294 149.389 105.103 149.517C104.912 149.644 104.688 149.712 104.458 149.712C104.15 149.712 103.855 149.59 103.637 149.373C103.419 149.156 103.297 148.861 103.297 148.554Z" fill="#ABABAB"/>
<path d="M155.168 148.554C155.168 148.325 155.236 148.101 155.364 147.911C155.491 147.72 155.673 147.572 155.885 147.484C156.097 147.397 156.33 147.374 156.556 147.418C156.781 147.463 156.988 147.573 157.15 147.735C157.312 147.897 157.423 148.104 157.468 148.328C157.513 148.553 157.49 148.786 157.402 148.997C157.314 149.209 157.165 149.39 156.974 149.517C156.783 149.644 156.559 149.712 156.329 149.712C156.021 149.712 155.726 149.59 155.508 149.373C155.29 149.156 155.168 148.861 155.168 148.554Z" fill="#ABABAB"/>
<path d="M142.172 148.554C142.172 148.325 142.24 148.101 142.368 147.911C142.495 147.721 142.676 147.572 142.889 147.485C143.101 147.397 143.334 147.374 143.559 147.419C143.785 147.463 143.992 147.574 144.154 147.735C144.316 147.897 144.427 148.104 144.472 148.328C144.516 148.553 144.493 148.786 144.406 148.997C144.318 149.209 144.169 149.39 143.978 149.517C143.787 149.644 143.563 149.712 143.333 149.712C143.18 149.712 143.029 149.682 142.889 149.624C142.748 149.566 142.62 149.48 142.512 149.373C142.404 149.265 142.319 149.138 142.26 148.997C142.202 148.857 142.172 148.706 142.172 148.554Z" fill="#ABABAB"/>
<path d="M161.723 159.97C161.723 159.741 161.791 159.517 161.918 159.327C162.046 159.136 162.227 158.988 162.439 158.9C162.652 158.813 162.885 158.79 163.11 158.835C163.335 158.879 163.542 158.989 163.705 159.151C163.867 159.313 163.978 159.52 164.022 159.744C164.067 159.969 164.044 160.202 163.956 160.413C163.868 160.625 163.72 160.805 163.529 160.933C163.338 161.06 163.113 161.128 162.884 161.128C162.576 161.128 162.28 161.006 162.063 160.789C161.845 160.572 161.723 160.277 161.723 159.97Z" fill="#ABABAB"/>
<path d="M175.023 159.97C175.023 159.741 175.092 159.517 175.219 159.327C175.347 159.136 175.528 158.988 175.74 158.9C175.952 158.813 176.186 158.79 176.411 158.834C176.636 158.879 176.843 158.989 177.005 159.151C177.168 159.313 177.278 159.52 177.323 159.744C177.368 159.969 177.345 160.201 177.257 160.413C177.169 160.625 177.02 160.805 176.829 160.933C176.639 161.06 176.414 161.128 176.184 161.128C175.877 161.128 175.581 161.006 175.363 160.789C175.146 160.572 175.023 160.277 175.023 159.97Z" fill="#ABABAB"/>
<path d="M181.664 171.274C181.664 171.045 181.732 170.821 181.86 170.63C181.987 170.44 182.169 170.292 182.381 170.204C182.593 170.116 182.826 170.093 183.052 170.138C183.277 170.183 183.484 170.293 183.646 170.455C183.808 170.617 183.919 170.823 183.964 171.048C184.009 171.272 183.986 171.505 183.898 171.717C183.81 171.928 183.661 172.109 183.47 172.236C183.279 172.364 183.055 172.432 182.825 172.432C182.517 172.432 182.222 172.31 182.004 172.092C181.786 171.875 181.664 171.581 181.664 171.274Z" fill="#ABABAB"/>
<path d="M175.023 137.119C175.023 136.89 175.092 136.666 175.219 136.475C175.347 136.285 175.528 136.136 175.74 136.049C175.952 135.961 176.186 135.938 176.411 135.983C176.636 136.028 176.843 136.138 177.005 136.3C177.168 136.462 177.278 136.668 177.323 136.893C177.368 137.117 177.345 137.35 177.257 137.562C177.169 137.773 177.02 137.954 176.83 138.081C176.639 138.208 176.414 138.276 176.184 138.276C175.877 138.276 175.581 138.154 175.364 137.937C175.146 137.72 175.023 137.426 175.023 137.119Z" fill="#ABABAB"/>
<path d="M162.884 183.847C163.525 183.847 164.045 183.329 164.045 182.69C164.045 182.05 163.525 181.532 162.884 181.532C162.242 181.532 161.723 182.05 161.723 182.69C161.723 183.329 162.242 183.847 162.884 183.847Z" fill="#ABABAB"/>
<path d="M387.305 196.489C387.149 196.405 383.45 194.385 379.754 190.498C374.836 185.329 372.337 179.318 372.526 173.115C372.791 164.373 376.554 159.184 379.663 156.369C383.537 152.863 388.58 151.039 393.499 151.367C402.925 151.994 402.621 162.019 402.617 162.121L401.494 162.075C401.509 161.697 401.746 153.038 393.424 152.485C388.81 152.179 384.068 153.896 380.418 157.199C377.47 159.867 373.902 164.8 373.649 173.149C373.215 187.435 387.694 195.424 387.84 195.503L387.305 196.489ZM402.056 162.098L401.494 162.075V162.075L402.056 162.098Z" fill="#EF7E29"/>
<path d="M430.411 200.381V294.258C430.411 295.297 430.206 296.326 429.807 297.287C429.408 298.247 428.824 299.119 428.087 299.854C427.35 300.589 426.475 301.171 425.513 301.569C424.55 301.966 423.518 302.171 422.476 302.171H383.067C380.581 302.17 378.198 301.185 376.441 299.433C374.684 297.681 373.696 295.304 373.695 292.826V200.678C373.695 196.712 374.946 192.848 377.27 189.63C379.594 186.413 382.873 184.006 386.645 182.749C390.339 181.523 392.835 178.082 393.048 174.207L393.217 170.967H410.889L411.143 174.133C411.301 176.075 412.022 177.929 413.218 179.469C414.414 181.01 416.034 182.169 417.88 182.807C421.54 184.076 424.713 186.451 426.958 189.6C429.204 192.749 430.41 196.517 430.411 200.381Z" fill="white" fill-opacity="0.49"/>
<path opacity="0.5" d="M430.409 200.381V294.258C430.41 295.297 430.204 296.326 429.806 297.287C429.407 298.247 428.823 299.119 428.086 299.854C427.349 300.589 426.474 301.171 425.511 301.569C424.549 301.966 423.517 302.171 422.475 302.171H394.356C391.87 302.17 389.487 301.185 387.73 299.433C385.973 297.681 384.985 295.304 384.984 292.826V200.678C384.985 196.712 386.236 192.846 388.561 189.629C390.885 186.411 394.166 184.004 397.939 182.749C401.628 181.523 404.13 178.082 404.336 174.207L404.511 170.967H410.888L411.142 174.133C411.3 176.075 412.021 177.929 413.217 179.469C414.413 181.01 416.033 182.169 417.879 182.807C421.539 184.076 424.712 186.451 426.957 189.6C429.203 192.749 430.409 196.517 430.409 200.381Z" fill="#AFCDFB" fill-opacity="0.45"/>
<path d="M429.085 211.56V292.366C429.084 294.366 428.287 296.285 426.869 297.699C425.451 299.114 423.527 299.908 421.521 299.908H415.833C411.063 299.908 408.503 298.836 405.853 296.721C403.202 294.607 397.372 294.956 395.426 297.424C393.481 299.893 387.916 299.908 387.916 299.908H383.951C381.582 299.907 379.31 298.968 377.635 297.297C375.96 295.625 375.02 293.36 375.02 290.997V210.968C379.986 209.959 387.391 209.404 397.017 211.27C408.365 213.469 420.842 212.618 429.085 211.56Z" fill="#AFCDFB"/>
<path d="M396.455 161.449H407.47C408.705 161.449 409.889 161.938 410.762 162.809C411.636 163.68 412.126 164.861 412.126 166.093V172.573H391.984V165.908C391.984 164.725 392.455 163.591 393.294 162.755C394.132 161.919 395.27 161.449 396.455 161.449Z" fill="#F99746"/>
<path d="M430.411 198.765H373.695V283.016H430.411V198.765Z" fill="#44AFEB"/>
<path d="M425.756 198.765H384.984V283.016H425.756V198.765Z" fill="#3697C1"/>
<path d="M412.412 173.886H391.588C390.972 173.884 390.383 173.64 389.948 173.206C389.513 172.772 389.267 172.184 389.266 171.571C389.267 170.957 389.513 170.369 389.948 169.935C390.383 169.501 390.972 169.257 391.588 169.255H412.412C413.027 169.257 413.617 169.501 414.052 169.935C414.487 170.369 414.732 170.957 414.734 171.571C414.732 172.184 414.487 172.772 414.052 173.206C413.617 173.64 413.027 173.884 412.412 173.886Z" fill="#EF7E29"/>
<path d="M378.998 297.148C378.998 297.148 376.233 300.321 369.294 301.377H369.289C366.374 301.819 362.723 301.89 358.229 301.193C343.033 303.549 337.457 297.149 337.457 297.149C321.879 284.774 321.702 258.795 337.457 252.915C342.064 251.196 346.099 251.472 349.386 252.531C355.133 254.387 361.322 254.387 367.069 252.531C370.356 251.472 374.39 251.196 378.998 252.915C381.056 253.677 382.941 254.843 384.54 256.343L384.722 256.515C394.396 265.861 392.376 286.522 378.998 297.148Z" fill="#95C38B"/>
<path d="M378.997 297.148C378.997 297.148 376.232 300.321 369.293 301.377H369.288C361.264 302.048 364.781 298.86 356.07 298.86C347.357 298.86 342.186 296.002 336.773 282.706C331.361 269.409 335.74 256.865 344.321 255.417C352.902 253.968 357.233 260.726 368.084 253.705C375.584 248.853 384.539 256.343 384.539 256.343L384.721 256.515C394.395 265.861 392.376 286.522 378.997 297.148Z" fill="#A8D29F"/>
<path d="M359.264 243.297C356.08 241.406 352.858 244.063 349.119 245.521C345.377 246.981 338.18 246.951 338.18 246.951C340.462 243.848 343.082 241.007 345.992 238.48C350.844 234.258 359.264 243.297 359.264 243.297Z" fill="#A8D29F"/>
<path d="M359.264 243.297C356.272 240.848 350.737 239.443 348.037 240.545C345.337 241.647 338.18 246.951 338.18 246.951C340.462 243.848 343.082 241.007 345.992 238.48C350.844 234.258 359.264 243.297 359.264 243.297Z" fill="#82B378"/>
<path d="M357.988 256.31C355.949 251.817 357.051 246.243 358.335 242.358C359.357 239.266 361.317 235.092 362.279 233.108C362.324 233.016 362.396 232.938 362.486 232.887C362.575 232.835 362.678 232.811 362.781 232.818C362.884 232.825 362.983 232.863 363.065 232.926C363.146 232.99 363.207 233.076 363.239 233.174L363.627 234.345C363.82 234.924 363.884 235.538 363.816 236.145C363.748 236.751 363.549 237.336 363.232 237.859C361.261 241.108 357.302 248.704 359.085 254.957C359.286 255.66 358.35 257.115 357.988 256.31Z" fill="#558949"/>
<path d="M376.621 256.55C376.621 256.55 382.885 258.429 383.047 263.153C383.208 267.876 378.669 267.438 376.355 265.026C374.042 262.614 372.923 256.386 376.621 256.55Z" fill="#D1F2C9"/>
<path d="M51.5021 302.043H465.084C465.213 302.043 465.337 302.19 465.428 302.452C465.52 302.714 465.571 303.069 465.571 303.44V304.034C465.571 304.404 465.52 304.76 465.428 305.022C465.337 305.283 465.213 305.431 465.084 305.431H51.5023C51.3732 305.431 51.2494 305.283 51.1582 305.022C51.0669 304.76 51.0156 304.404 51.0156 304.034V303.44C51.0156 303.069 51.0669 302.714 51.1581 302.452C51.2493 302.19 51.3731 302.043 51.5021 302.043Z" fill="#ADCCBF"/>
<path d="M219.886 234.665C219.886 234.665 216.063 242.199 216.523 242.349C216.982 242.499 264.129 252.248 289.08 239.799L286.494 233.365C286.494 233.365 260.739 244.395 219.886 234.665Z" fill="#354393"/>
<path d="M261.908 168.216C239.283 163.146 217.021 175.402 211.013 195.743C210.632 197.033 211.484 198.394 212.9 198.711C214.302 199.025 215.699 198.285 216.083 197.009C221.443 179.196 240.988 168.488 260.844 172.937C281.534 177.573 294.852 196.938 290.533 216.106L295.629 217.248C300.535 195.478 285.406 173.481 261.908 168.216Z" fill="#95C38B"/>
<path d="M285.707 213.661L290.392 223.993C290.485 224.187 290.623 224.357 290.794 224.489C290.964 224.621 291.163 224.711 291.375 224.753C291.587 224.795 291.806 224.788 292.014 224.731C292.222 224.674 292.414 224.57 292.575 224.426L300.512 216.929C301.15 216.327 300.807 215.285 299.905 215.083L287.025 212.197C286.095 211.989 285.332 212.836 285.707 213.661Z" fill="#95C38B"/>
<path d="M243.356 261.965C265.981 267.034 288.243 254.779 294.251 234.437C294.632 233.147 293.78 231.786 292.364 231.469C290.962 231.155 289.565 231.895 289.181 233.171C283.82 250.984 264.276 261.692 244.42 257.243C223.73 252.608 210.411 233.242 214.73 214.074L209.634 212.933C204.729 234.702 219.858 256.7 243.356 261.965Z" fill="#A8D29F"/>
<path d="M219.555 216.519L214.869 206.187C214.776 205.993 214.638 205.823 214.467 205.691C214.297 205.559 214.098 205.469 213.886 205.427C213.674 205.385 213.455 205.392 213.247 205.449C213.039 205.506 212.847 205.61 212.686 205.754L204.749 213.251C204.112 213.853 204.455 214.895 205.357 215.097L218.236 217.983C219.165 218.191 219.929 217.344 219.555 216.519Z" fill="#A8D29F"/>
<path d="M255.572 220.608C255.572 221.489 255.215 222.203 254.774 222.203C254.334 222.203 253.977 221.489 253.977 220.608C253.977 219.727 254.334 219.013 254.774 219.013C255.215 219.013 255.572 219.727 255.572 220.608Z" fill="#ED985F"/>
</svg>
