<svg width="560" height="308" viewBox="0 0 560 308" fill="none" xmlns="http://www.w3.org/2000/svg">
<g clip-path="url(#clip0)">
<path d="M44.7809 302.097C44.8046 302.204 44.8302 302.313 44.8559 302.422L47.482 302.431L57.216 302.469L276.972 303.303H279.412L296.818 303.294H299.066L496.152 303.208C496.152 303.208 555.789 193.834 500.297 125.354C455.157 69.6487 392.537 71.175 369.816 76.433C265.911 100.472 291.314 80.5029 229 41C173 5.50006 104.621 53.611 107.787 97.7884C113.193 173.215 57.216 152.5 36.9618 195.806C16.7076 239.111 27.9995 276.5 44.7809 302.097Z" fill="#FCDEDC"/>
<g opacity="0.6">
<path d="M375.515 92H406.188C406.65 92 407.107 92.091 407.534 92.2679C407.96 92.4448 408.348 92.704 408.674 93.0308C409 93.3577 409.259 93.7456 409.436 94.1727C409.613 94.5997 409.703 95.0573 409.703 95.5195V125.104C409.703 126.037 409.333 126.933 408.674 127.593C408.015 128.253 407.121 128.623 406.188 128.623H375.515C374.583 128.623 373.689 128.253 373.03 127.593C372.37 126.933 372 126.037 372 125.104V95.5195C372 95.0573 372.091 94.5997 372.268 94.1727C372.444 93.7456 372.703 93.3577 373.03 93.0308C373.356 92.704 373.743 92.4448 374.17 92.2679C374.596 92.091 375.053 92 375.515 92Z" fill="#EFBEBC"/>
<path d="M376.842 93.5869H404.858C405.709 93.5869 406.525 93.9255 407.127 94.5281C407.729 95.1308 408.067 95.9481 408.067 96.8004V123.823C408.067 124.675 407.729 125.493 407.127 126.096C406.525 126.698 405.709 127.037 404.858 127.037H376.842C376.421 127.037 376.003 126.954 375.614 126.792C375.225 126.631 374.871 126.394 374.573 126.096C374.275 125.797 374.038 125.443 373.877 125.053C373.716 124.663 373.633 124.245 373.633 123.823V96.8012C373.633 96.3791 373.716 95.9611 373.877 95.5712C374.038 95.1812 374.275 94.8269 374.573 94.5284C374.871 94.2299 375.224 93.9931 375.614 93.8316C376.003 93.6701 376.421 93.5869 376.842 93.5869Z" fill="#F5D5D4"/>
<path d="M390.851 97.7113C391.283 97.7113 391.632 97.3613 391.632 96.9294C391.632 96.4975 391.283 96.1475 390.851 96.1475C390.42 96.1475 390.07 96.4975 390.07 96.9294C390.07 97.3613 390.42 97.7113 390.851 97.7113Z" fill="#E7ACAA"/>
<path d="M396.372 98.035C396.447 97.8998 396.56 97.7899 396.697 97.7193C396.835 97.6486 396.99 97.6203 397.144 97.6379C397.297 97.6556 397.442 97.7184 397.56 97.8184C397.677 97.9185 397.763 98.0513 397.805 98.2C397.848 98.3487 397.845 98.5066 397.798 98.6539C397.751 98.8011 397.661 98.9311 397.54 99.0272C397.419 99.1234 397.272 99.1814 397.118 99.1941C396.964 99.2067 396.81 99.1734 396.675 99.0983C396.494 98.9976 396.36 98.829 396.303 98.6296C396.247 98.4302 396.271 98.2163 396.372 98.035Z" fill="#E7ACAA"/>
<path d="M401.772 102.329C401.902 102.246 402.053 102.202 402.208 102.205C402.362 102.207 402.513 102.256 402.64 102.344C402.767 102.432 402.865 102.555 402.921 102.699C402.978 102.843 402.991 103 402.958 103.152C402.926 103.303 402.849 103.441 402.738 103.548C402.627 103.656 402.487 103.728 402.335 103.756C402.183 103.784 402.026 103.766 401.885 103.704C401.743 103.643 401.623 103.54 401.539 103.41C401.483 103.324 401.445 103.228 401.427 103.127C401.408 103.026 401.41 102.922 401.432 102.822C401.453 102.721 401.494 102.626 401.553 102.542C401.611 102.457 401.686 102.385 401.772 102.329Z" fill="#E7ACAA"/>
<path d="M404.445 110.541C404.876 110.541 405.226 110.191 405.226 109.759C405.226 109.327 404.876 108.977 404.445 108.977C404.014 108.977 403.664 109.327 403.664 109.759C403.664 110.191 404.014 110.541 404.445 110.541Z" fill="#E7ACAA"/>
<path d="M403.079 116.691C403.189 116.8 403.263 116.94 403.293 117.091C403.323 117.243 403.308 117.4 403.249 117.543C403.189 117.686 403.089 117.808 402.961 117.894C402.833 117.98 402.682 118.026 402.527 118.026C402.373 118.026 402.222 117.98 402.093 117.894C401.965 117.808 401.865 117.686 401.806 117.543C401.746 117.4 401.731 117.243 401.761 117.091C401.791 116.94 401.866 116.8 401.975 116.691C402.047 116.618 402.133 116.561 402.228 116.521C402.323 116.482 402.425 116.462 402.527 116.462C402.63 116.462 402.731 116.482 402.826 116.521C402.921 116.561 403.007 116.618 403.079 116.691Z" fill="#E7ACAA"/>
<path d="M397.625 122.949C398.056 122.949 398.406 122.599 398.406 122.167C398.406 121.735 398.056 121.385 397.625 121.385C397.193 121.385 396.844 121.735 396.844 122.167C396.844 122.599 397.193 122.949 397.625 122.949Z" fill="#E7ACAA"/>
<path d="M390.851 124.934C391.283 124.934 391.632 124.584 391.632 124.152C391.632 123.72 391.283 123.37 390.851 123.37C390.42 123.37 390.07 123.72 390.07 124.152C390.07 124.584 390.42 124.934 390.851 124.934Z" fill="#E7ACAA"/>
<path d="M385.307 98.035C385.232 97.8998 385.119 97.7899 384.982 97.7193C384.844 97.6486 384.689 97.6203 384.536 97.6379C384.382 97.6556 384.237 97.7184 384.12 97.8184C384.002 97.9185 383.916 98.0513 383.874 98.2C383.831 98.3487 383.834 98.5066 383.881 98.6539C383.928 98.8011 384.018 98.9311 384.139 99.0272C384.26 99.1234 384.407 99.1814 384.561 99.1941C384.715 99.2067 384.869 99.1734 385.004 99.0983C385.185 98.9976 385.319 98.829 385.376 98.6296C385.433 98.4302 385.408 98.2163 385.307 98.035Z" fill="#E7ACAA"/>
<path d="M379.907 102.329C379.778 102.246 379.626 102.202 379.471 102.205C379.317 102.207 379.167 102.256 379.04 102.344C378.913 102.432 378.815 102.555 378.758 102.699C378.701 102.843 378.688 103 378.721 103.152C378.753 103.303 378.83 103.441 378.941 103.548C379.052 103.656 379.192 103.728 379.344 103.756C379.496 103.784 379.653 103.766 379.795 103.704C379.936 103.643 380.057 103.54 380.14 103.41C380.196 103.324 380.234 103.228 380.253 103.127C380.271 103.026 380.269 102.922 380.248 102.822C380.226 102.721 380.185 102.626 380.126 102.542C380.068 102.457 379.994 102.385 379.907 102.329Z" fill="#E7ACAA"/>
<path d="M377.234 110.541C377.665 110.541 378.015 110.191 378.015 109.759C378.015 109.327 377.665 108.977 377.234 108.977C376.803 108.977 376.453 109.327 376.453 109.759C376.453 110.191 376.803 110.541 377.234 110.541Z" fill="#E7ACAA"/>
<path d="M378.596 116.691C378.487 116.801 378.412 116.94 378.382 117.092C378.352 117.243 378.368 117.4 378.427 117.543C378.486 117.686 378.586 117.808 378.714 117.894C378.843 117.98 378.994 118.026 379.148 118.026C379.303 118.026 379.454 117.98 379.582 117.894C379.71 117.808 379.811 117.686 379.87 117.543C379.929 117.4 379.944 117.243 379.914 117.092C379.884 116.94 379.81 116.801 379.7 116.691C379.554 116.545 379.355 116.462 379.148 116.462C378.941 116.462 378.742 116.545 378.596 116.691Z" fill="#E7ACAA"/>
<path d="M384.054 122.949C384.486 122.949 384.835 122.599 384.835 122.167C384.835 121.735 384.486 121.385 384.054 121.385C383.623 121.385 383.273 121.735 383.273 122.167C383.273 122.599 383.623 122.949 384.054 122.949Z" fill="#E7ACAA"/>
<path d="M390.641 109.759C390.641 109.604 390.686 109.453 390.772 109.325C390.858 109.196 390.98 109.096 391.123 109.037C391.265 108.977 391.423 108.962 391.574 108.992C391.726 109.022 391.865 109.097 391.974 109.206C392.083 109.315 392.158 109.455 392.188 109.606C392.218 109.758 392.202 109.915 392.143 110.058C392.084 110.201 391.984 110.323 391.856 110.409C391.727 110.495 391.576 110.541 391.422 110.541C391.215 110.541 391.016 110.459 390.869 110.312C390.723 110.165 390.641 109.966 390.641 109.759Z" fill="#E7ACAA"/>
<path d="M391.53 99.9897H391.316V109.759H391.53V99.9897Z" fill="#E7ACAA"/>
<path d="M396.298 105.429L391.125 109.493L391.52 109.997L396.693 105.932L396.298 105.429Z" fill="#E7ACAA"/>
</g>
<path d="M455.233 224.169C455.233 224.169 474.553 164.522 475.787 159.691C476.335 157.537 478.03 156.759 479.736 156.559C476.733 156.305 474.547 156.286 474.547 156.286C468.634 156.286 463.379 159.781 461.482 164.974C457.343 176.302 441.306 195.266 433.586 216.542C433.977 216.534 455.233 224.169 455.233 224.169Z" fill="#F1D5D4"/>
<path d="M372.205 278.166C374.56 293.272 389.955 302.89 405.746 302.89H437.024L434.578 214.844C434.578 214.844 404.736 205.254 397.241 214.377C390.674 222.369 372.867 254.007 371.931 272.733C371.836 274.548 371.928 276.369 372.205 278.166Z" fill="#F5D5D4"/>
<path d="M455.233 224.169C455.233 224.169 413.041 202.606 405.049 216.692C400.805 224.17 389.128 254.008 388.266 272.734C387.429 290.928 403.172 302.892 419.366 302.892H448.129L455.233 224.169Z" fill="#E7ACAA"/>
<path d="M447.298 236.128C447.654 237.96 451.069 239.661 456.139 241.165C457.032 241.431 457.974 241.69 458.965 241.943C476.219 246.356 506.779 248.819 509.692 247.518C513.717 245.72 538.422 157.833 538.422 157.833C538.422 157.833 514.839 156.946 496.111 156.513C489.704 156.368 483.865 156.274 479.734 156.286C479.258 156.285 478.783 156.319 478.313 156.385C476.714 156.575 475.235 157.333 474.145 158.52C471.13 161.764 470.382 168.173 467.591 175.256C464.831 182.26 461.442 191.002 458.23 199.676C457.402 201.912 456.583 204.143 455.794 206.34C455.57 206.96 455.348 207.577 455.13 208.191C450.381 221.494 446.723 233.159 447.298 236.128Z" fill="#F7C8C6"/>
<path d="M372.207 278.166C374.562 293.272 389.957 302.891 405.748 302.891H421.09C410.859 295.949 401.609 274.551 372.207 278.166Z" fill="#E7ACAA"/>
<path d="M396.835 289.364C402.871 297.762 412.133 303.146 422.449 302.979L466.796 303.001L488.044 303.012L464.139 224.183C464.139 224.183 403.633 218.155 396.172 226.192C392.707 229.923 390.763 246.822 389.674 263.856C389.059 273.459 391.85 282.438 396.835 289.364Z" fill="#F7C8C6"/>
<path d="M396.832 289.363C402.868 297.762 412.13 303.145 422.446 302.978L466.794 303.001C461.575 298.615 445.162 286.168 427.59 286.758C414.27 287.204 403.692 287.013 396.832 289.363Z" fill="#E39D9A"/>
<path d="M433.586 278.956C436.122 293.606 450.04 302.891 464.306 302.891H493.069L490.818 214.845C490.818 214.845 463.376 205.255 456.483 214.378C450.444 222.37 434.068 254.008 433.205 272.733C433.105 274.815 433.232 276.902 433.586 278.956Z" fill="#F5D5D4"/>
<path d="M433.586 278.956C436.123 293.607 450.04 302.891 464.306 302.891H487.324C476.549 295.58 462.042 275.378 433.586 278.956Z" fill="#F1ACAA"/>
<path d="M536.289 302.487L536.174 302.505C534.872 302.712 533.52 302.858 532.119 302.944C531.125 303.01 530.103 303.047 529.058 303.053C527.269 303.065 524.763 303.056 521.928 303.038C521.758 303.035 521.585 303.035 521.411 303.035C520.943 303.029 520.471 303.026 519.991 303.023L517.089 302.995C515.094 302.974 513.05 302.95 511.067 302.925C510.507 302.919 509.95 302.913 509.406 302.904L509.403 302.919H480.643C480.488 302.919 480.336 302.916 480.187 302.916C479.91 302.91 479.636 302.904 479.362 302.892C479.18 302.886 479 302.877 478.818 302.867C478.602 302.855 478.385 302.843 478.17 302.828C465.222 301.853 453.092 293.314 450.172 280.197C450.126 279.99 450.085 279.78 450.041 279.57C449.596 277.299 449.429 274.982 449.542 272.671C449.789 267.348 450.902 261.126 452.468 254.773C453.587 250.233 454.941 245.628 456.374 241.233C458.488 234.737 460.778 228.71 462.752 224.047C463.811 221.461 465.002 218.931 466.323 216.467C468.544 212.548 473.391 211.381 479.24 211.741C480.382 211.811 481.562 211.939 482.769 212.117C482.971 212.147 483.171 212.178 483.376 212.208C483.418 212.217 483.467 212.223 483.525 212.232C485.237 212.509 486.995 212.881 488.765 213.32C490.146 213.66 491.533 214.045 492.911 214.459C496.017 215.387 499.079 216.462 501.917 217.553C502.924 217.94 503.898 218.324 504.84 218.707H504.843C506.659 219.444 508.341 220.166 509.829 220.827C509.843 220.831 509.856 220.837 509.868 220.845C510.243 221.01 510.604 221.174 510.954 221.329C510.972 221.268 510.991 221.204 511.009 221.144C511.045 221.022 511.082 220.903 511.119 220.781C511.477 219.585 511.834 218.389 512.189 217.194C512.219 217.09 512.253 216.983 512.283 216.88C518.485 196.104 524.444 176.238 527.783 165.128C528.664 162.04 530.643 159.38 533.347 157.652H533.349C533.859 157.335 534.393 157.06 534.946 156.829C536.252 156.283 537.653 156.002 539.068 156.001C539.068 156.001 540.957 156.022 543.551 156.287H543.554C545.008 156.436 546.678 156.663 548.363 157.003C557.222 182.465 556.443 225.646 536.289 302.487Z" fill="#EFBEBC"/>
<path d="M524.315 224.847C524.315 224.847 539.078 164.627 540.142 159.566C540.616 157.311 542.08 156.496 543.554 156.286C540.96 156.02 539.072 156 539.072 156C533.964 156 529.425 159.66 527.785 165.101C524.21 176.967 517.626 198.85 510.957 221.138C511.294 221.129 524.315 224.847 524.315 224.847Z" fill="#F5D5D4"/>
<path d="M125.687 242.862C125.117 233.708 122.316 224.834 117.528 217.016C116.867 215.936 116.172 214.881 115.442 213.851C112.988 210.386 110.154 207.208 106.992 204.376C106.268 203.727 105.527 203.097 104.77 202.486C102.101 200.331 99.241 198.424 96.2263 196.788C95.9704 196.65 95.7131 196.513 95.4542 196.378C94.9692 196.124 94.4801 195.877 93.987 195.638C91.2277 194.297 88.3631 193.185 85.4221 192.314C84.6838 192.095 83.9391 191.891 83.188 191.702C80.3302 190.983 77.4203 190.49 74.4854 190.228C73.7419 190.161 72.995 190.109 72.2446 190.072C71.3021 190.025 70.3539 190.001 69.4 190C67.2994 190.001 65.2004 190.118 63.1128 190.351C62.3407 190.437 61.5743 190.534 60.8131 190.65C57.2755 191.192 53.7979 192.072 50.4279 193.279C49.5371 193.597 48.6568 193.937 47.7872 194.298C34.4508 199.858 23.7423 210.313 17.8555 223.522C17.4765 224.374 17.1183 225.238 16.7809 226.111C15.5153 229.387 14.5601 232.775 13.9279 236.23C13.7901 236.984 13.6677 237.744 13.5608 238.51C13.188 241.147 13.0006 243.808 13 246.472C13 246.775 13.0024 247.078 13.0071 247.38C13.0192 248.136 13.0464 248.889 13.0889 249.637C13.246 252.487 13.6188 255.321 14.2041 258.114C14.3664 258.888 14.544 259.656 14.7372 260.418C15.4708 263.307 16.4332 266.132 17.6153 268.867C17.9624 269.671 18.3275 270.465 18.7105 271.249C18.9648 271.77 19.2265 272.285 19.4957 272.795C20.805 275.278 22.2972 277.659 23.96 279.919C24.5681 280.747 25.1981 281.556 25.8501 282.348C28.5688 285.654 31.6521 288.641 35.0412 291.253C36.0919 292.063 37.1714 292.836 38.2796 293.572C46.1026 298.767 55.1021 301.916 64.4545 302.728C66.0848 302.87 67.7337 302.942 69.4014 302.943C100.551 302.943 125.803 277.66 125.803 246.471C125.803 245.259 125.764 244.056 125.687 242.862Z" fill="#EB4B51"/>
<path d="M50.4295 193.278C49.5387 193.597 48.6584 193.937 47.7888 194.298C45.1932 202.625 41.006 209.362 35.2443 214.451C29.8112 219.25 23.5729 221.983 17.8559 223.522C17.4769 224.374 17.1187 225.237 16.7812 226.111C23.2077 224.594 30.4498 221.675 36.7144 216.15C43.1892 210.437 47.7667 202.786 50.4295 193.278Z" fill="#CC3742"/>
<path d="M45.9211 226.113C55.3452 217.853 61.0951 205.864 63.1151 190.353C62.343 190.438 61.5767 190.535 60.8155 190.652C58.8018 205.312 53.329 216.626 44.4562 224.408C35.0607 232.65 23.4865 235.316 15.4321 236.101C14.9234 236.151 14.4226 236.194 13.9297 236.23C13.7918 236.984 13.6694 237.744 13.5625 238.509C14.219 238.465 14.8898 238.41 15.5747 238.345C23.974 237.537 36.0578 234.758 45.9211 226.113Z" fill="#CC3742"/>
<path d="M22.3221 249.281C31.4005 248.388 44.4622 245.373 55.1337 236.075C66.8005 225.909 73.2887 210.517 74.4872 190.228C73.7437 190.161 72.9968 190.109 72.2464 190.072C71.0883 209.738 64.8635 224.61 53.6739 234.367C43.468 243.267 30.9121 246.169 22.1748 247.037C19.1289 247.337 16.0676 247.452 13.0078 247.38C13.0198 248.137 13.0471 248.889 13.0896 249.638C13.6043 249.648 14.1381 249.654 14.6909 249.655C16.9591 249.654 19.5358 249.555 22.3221 249.281Z" fill="#CC3742"/>
<path d="M29.0715 260.217C35.0269 259.651 40.89 258.352 46.5277 256.348C53.0517 254.039 59.0943 250.545 64.3522 246.041C77.8034 234.385 84.8787 216.33 85.4234 192.315C84.6851 192.096 83.9404 191.892 83.1893 191.704C82.7564 215.329 75.9424 233.017 62.897 244.33C51.879 253.885 38.3389 257.023 28.9202 257.974C24.0288 258.465 19.1031 258.513 14.2031 258.117C14.3654 258.891 14.543 259.659 14.7361 260.421C16.3449 260.541 18.3517 260.637 20.6673 260.637C23.1531 260.634 25.9929 260.524 29.0715 260.217Z" fill="#CC3742"/>
<path d="M35.8213 271.149C42.1933 270.535 48.4662 269.14 54.4996 266.998C61.7234 264.389 68.1412 260.689 73.5755 256.004C88.159 243.428 95.7636 223.879 96.2109 197.858C95.7516 196.928 95.4731 196.41 95.4545 196.375C94.9695 196.122 94.4805 195.875 93.9873 195.636C93.9444 222.077 86.5949 241.803 72.1243 254.289C60.293 264.497 45.7681 267.872 35.6669 268.905C29.6643 269.526 23.6131 269.513 17.6133 268.865C17.9604 269.669 18.3255 270.463 18.7085 271.247C20.5789 271.427 23.304 271.612 26.6399 271.612C29.7062 271.612 32.7705 271.458 35.8213 271.149Z" fill="#CC3742"/>
<path d="M62.4775 277.652C70.1742 274.875 77.0139 270.945 82.8067 265.973C94.5198 255.92 102.023 241.678 105.229 223.478C105.352 222.784 105.468 222.084 105.577 221.378C106.433 215.75 106.906 210.069 106.994 204.376C106.27 203.727 105.529 203.098 104.772 202.487C104.743 207.055 104.507 211.433 104.063 215.62C103.985 216.354 103.901 217.083 103.81 217.805C101.275 238.026 93.7572 253.606 81.3595 264.254C68.7135 275.115 53.2032 278.726 42.4186 279.842C37.7965 280.316 33.1459 280.451 28.5041 280.246L28.2165 280.232C26.4825 280.149 25.0404 280.03 23.9609 279.921C24.5691 280.748 25.1991 281.557 25.8511 282.349C27.658 282.484 29.9491 282.594 32.6138 282.594H32.6908C32.9333 282.594 33.1812 282.592 33.4294 282.59C36.1582 282.567 39.2422 282.428 42.5761 282.085C49.365 281.422 56.0479 279.933 62.4775 277.652Z" fill="#CC3742"/>
<path d="M92.0352 275.941C107.355 262.847 115.909 243.053 117.527 217.017C116.866 215.938 116.171 214.883 115.441 213.852C114.732 231.298 110.973 245.964 104.213 257.713C100.652 263.957 96.0445 269.541 90.5917 274.22C85.4306 278.59 79.6249 282.133 73.3809 284.724C64.6594 288.399 56.0159 290.061 49.1651 290.777C44.4731 291.263 39.7531 291.423 35.0391 291.254C36.0898 292.064 37.1693 292.837 38.2775 293.573C38.3784 293.573 38.4776 293.573 38.58 293.573C42.169 293.573 45.7556 293.388 49.3255 293.018C56.5317 292.305 63.6253 290.722 70.4516 288.303C78.6212 285.359 85.883 281.2 92.0352 275.941Z" fill="#CC3742"/>
<path d="M124.763 235.632C121.473 256.579 113.125 272.86 99.8306 284.185C85.9905 295.974 69.14 300.17 57.0508 301.584C59.4901 302.13 61.9631 302.513 64.4532 302.729C69.205 301.844 73.879 300.583 78.4311 298.956C87.0743 295.843 94.759 291.454 101.271 285.909C113.499 275.499 121.663 261.079 125.687 242.862C125.535 240.435 125.226 238.02 124.763 235.632Z" fill="#CC3742"/>
<path d="M197.012 287.438H132.845C132.378 287.438 132 287.817 132 288.284V291.891C132 292.358 132.378 292.736 132.845 292.736H197.012C197.479 292.736 197.857 292.358 197.857 291.891V288.284C197.857 287.817 197.479 287.438 197.012 287.438Z" fill="#1C1A12"/>
<path d="M150.685 277.349V301.904C150.683 302.363 150.501 302.803 150.177 303.128C149.852 303.453 149.413 303.636 148.954 303.638H145.059C144.6 303.637 144.161 303.453 143.837 303.128C143.512 302.804 143.33 302.364 143.328 301.904V277.349C143.329 276.89 143.512 276.45 143.836 276.125C144.161 275.8 144.6 275.617 145.059 275.616H148.954C149.413 275.617 149.852 275.8 150.177 276.125C150.501 276.45 150.684 276.89 150.685 277.349Z" fill="#F99746"/>
<path d="M142.041 278.648H138.989C138.24 278.648 137.633 279.256 137.633 280.006V299.246C137.633 299.995 138.24 300.603 138.989 300.603H142.041C142.79 300.603 143.397 299.995 143.397 299.246V280.006C143.397 279.256 142.79 278.648 142.041 278.648Z" fill="#E47D00"/>
<path d="M187.271 277.134V301.69C187.27 302.149 187.087 302.589 186.763 302.914C186.438 303.238 185.999 303.421 185.54 303.422H181.644C181.186 303.421 180.746 303.238 180.422 302.914C180.098 302.589 179.915 302.149 179.914 301.69V277.134C179.915 276.675 180.098 276.235 180.422 275.91C180.746 275.585 181.186 275.402 181.644 275.4H185.54C185.999 275.402 186.438 275.585 186.763 275.91C187.087 276.235 187.269 276.675 187.271 277.134Z" fill="#F99746"/>
<path d="M192.968 279.793V299.031C192.967 299.391 192.823 299.736 192.569 299.99C192.314 300.245 191.97 300.388 191.61 300.389H188.559C188.2 300.388 187.856 300.244 187.602 299.99C187.348 299.735 187.204 299.391 187.203 299.031V279.793C187.204 279.433 187.348 279.088 187.602 278.834C187.856 278.579 188.2 278.436 188.559 278.435H191.61C191.97 278.435 192.314 278.579 192.569 278.833C192.823 279.088 192.967 279.433 192.968 279.793Z" fill="#E47D00"/>
<path d="M8.34513 302.187H545.935C546.143 302.187 546.344 302.26 546.491 302.391C546.638 302.521 546.721 302.698 546.721 302.882V303.724C546.721 303.909 546.638 304.085 546.491 304.216C546.344 304.346 546.143 304.419 545.935 304.419H8.34513C8.13653 304.419 7.93647 304.346 7.78896 304.216C7.64146 304.085 7.55859 303.909 7.55859 303.724V302.882C7.55866 302.698 7.64155 302.521 7.78905 302.391C7.93654 302.26 8.13657 302.187 8.34513 302.187Z" fill="#F6AFAF"/>
<path d="M264.219 145.31C264.154 147.084 263.936 148.849 263.567 150.586C262.957 153.413 262.105 156.181 261.022 158.862C260.042 161.343 258.977 163.648 257.868 165.868C256.759 168.088 255.597 170.219 254.406 172.301C252.021 176.457 249.506 180.414 246.902 184.28C245.6 186.21 244.272 188.119 242.917 190.007C242.241 190.952 241.555 191.894 240.858 192.833L239.801 194.248L239.259 194.964L238.979 195.329L238.661 195.736L218.483 178.812L218.576 178.713L218.694 178.583L218.936 178.31L219.434 177.744L220.441 176.583C221.115 175.798 221.785 175.006 222.449 174.207C223.782 172.607 225.09 170.99 226.375 169.355C228.937 166.089 231.394 162.769 233.642 159.436C234.764 157.769 235.835 156.101 236.819 154.448C237.803 152.796 238.706 151.154 239.463 149.589C239.805 148.892 240.115 148.202 240.385 147.55C239.249 147.625 238.036 147.756 236.801 147.929C234.912 148.194 232.953 148.551 230.973 148.969C227.011 149.806 222.966 150.874 218.928 152.064C216.91 152.659 214.894 153.286 212.88 153.945C211.874 154.273 210.872 154.608 209.874 154.948L208.385 155.465L206.968 155.968L199.918 139.052L201.558 138.314L203.139 137.62C204.194 137.164 205.245 136.716 206.302 136.273C208.414 135.392 210.541 134.538 212.682 133.713C216.974 132.065 221.34 130.522 225.899 129.166C228.181 128.489 230.514 127.858 232.95 127.313C235.511 126.723 238.106 126.292 240.721 126.023C242.221 125.873 243.728 125.812 245.236 125.839C247.108 125.864 248.972 126.095 250.794 126.526C252 126.818 253.175 127.225 254.304 127.741C254.985 128.054 255.645 128.411 256.281 128.809C257 129.265 257.685 129.775 258.328 130.334C258.67 130.636 259.002 130.948 259.328 131.293C259.49 131.459 259.652 131.635 259.808 131.817L260.043 132.091L260.158 132.229L260.253 132.349C260.751 132.972 261.206 133.629 261.613 134.315C262.369 135.593 262.964 136.96 263.385 138.384C263.741 139.597 263.984 140.84 264.11 142.098C264.219 143.165 264.255 144.238 264.219 145.31Z" fill="#FFB27D"/>
<path d="M434.217 232.971L427.64 244.405L415.902 240.411L409.152 238.112L416.255 224.96L423.013 227.975L434.217 232.971Z" fill="#FFB27D"/>
<path d="M468.487 215.156L443.609 258.404C442.654 258.324 441.726 258.047 440.884 257.59C437.074 255.753 431.914 251.226 428.565 248.533C428.176 248.217 427.81 247.926 427.474 247.67C427.017 247.311 426.541 246.979 426.047 246.675C423.046 244.944 425.09 242.583 425.09 242.583C431.892 240.677 428.316 232.016 432.089 230.337C432.089 230.337 432.221 230.277 432.528 230.154C432.836 230.031 433.319 229.84 434.023 229.581C435.069 229.196 436.601 228.656 438.76 227.95C443.819 226.3 449.215 221.632 454.151 217.86C454.761 217.395 455.346 216.97 455.907 216.587C456.34 216.29 456.76 216.015 457.165 215.762C461.735 212.92 464.593 212.83 466.293 213.417C467.215 213.704 467.997 214.324 468.487 215.156Z" fill="white"/>
<path d="M457.166 215.762C457.355 217.445 457.56 220.997 456.224 222.795C455.713 223.362 455.134 223.863 454.5 224.287C452.31 225.894 448.544 228.186 445.184 230.074C442.514 231.575 439.988 232.889 438.068 233.773C434.923 235.221 434.039 235.263 433.551 235.09C432.052 234.563 432.13 232.217 432.528 230.153C432.836 230.027 433.319 229.839 434.023 229.58C433.509 231.775 433.457 233.603 433.979 233.822C434.602 233.893 437.959 232.616 444.745 228.787C449.924 225.863 454.495 222.881 455.153 221.997C456.02 220.829 456.047 218.356 455.907 216.586C456.34 216.289 456.76 216.014 457.166 215.762Z" fill="#B4CAD2"/>
<path d="M468.488 215.155L443.609 258.404C442.654 258.323 441.726 258.046 440.883 257.59L466.294 213.416C467.216 213.703 467.997 214.323 468.488 215.155Z" fill="#B4CAD2"/>
<path d="M446.147 253.994L445.408 255.278C444.682 253.153 443.128 250.658 439.829 248.965C435.441 246.712 431.089 247.617 428.565 248.534C428.176 248.218 427.808 247.926 427.473 247.671C430.043 246.597 435.113 245.21 440.37 247.905C442.959 249.18 445.008 251.339 446.147 253.994Z" fill="#B4CAD2"/>
<path d="M440.884 230.153C440.786 230.331 440.626 230.465 440.434 230.531C440.243 230.597 440.034 230.59 439.847 230.51C439.661 230.431 439.51 230.286 439.425 230.102C439.339 229.918 439.324 229.709 439.383 229.515L440.266 226.427C440.326 226.218 440.467 226.04 440.657 225.935C440.848 225.829 441.073 225.803 441.282 225.863C441.491 225.923 441.668 226.064 441.774 226.255C441.88 226.446 441.905 226.671 441.845 226.881L440.962 229.969C440.944 230.033 440.918 230.095 440.884 230.153Z" fill="#B4CAD2"/>
<path d="M437.092 231.54C436.993 231.718 436.833 231.852 436.641 231.918C436.45 231.984 436.241 231.977 436.054 231.897C435.868 231.818 435.717 231.673 435.632 231.489C435.546 231.305 435.531 231.096 435.59 230.902L436.473 227.814C436.533 227.605 436.674 227.428 436.865 227.322C437.055 227.216 437.28 227.19 437.489 227.251C437.699 227.311 437.876 227.452 437.981 227.642C438.087 227.833 438.113 228.058 438.053 228.268L437.169 231.356C437.151 231.42 437.125 231.482 437.092 231.54Z" fill="#B4CAD2"/>
<path d="M444.01 228.356C443.909 228.53 443.749 228.662 443.559 228.725C443.369 228.789 443.162 228.781 442.977 228.702C442.792 228.624 442.643 228.48 442.557 228.299C442.47 228.118 442.453 227.911 442.508 227.718L443.392 224.63C443.421 224.527 443.471 224.43 443.538 224.345C443.605 224.261 443.689 224.19 443.783 224.138C443.877 224.085 443.981 224.052 444.088 224.04C444.195 224.028 444.304 224.037 444.408 224.067C444.511 224.096 444.608 224.146 444.693 224.213C444.777 224.281 444.847 224.364 444.9 224.458C444.952 224.553 444.985 224.657 444.997 224.764C445.009 224.871 445 224.98 444.971 225.084L444.086 228.172C444.068 228.236 444.043 228.298 444.01 228.356Z" fill="#B4CAD2"/>
<path d="M447.069 226.524C446.969 226.698 446.808 226.829 446.618 226.893C446.428 226.957 446.221 226.949 446.036 226.871C445.851 226.792 445.701 226.649 445.615 226.467C445.529 226.286 445.512 226.079 445.567 225.886L446.45 222.798C446.48 222.694 446.53 222.597 446.597 222.513C446.664 222.428 446.747 222.358 446.841 222.305C446.936 222.253 447.04 222.22 447.147 222.207C447.254 222.195 447.362 222.204 447.466 222.234C447.57 222.264 447.667 222.314 447.751 222.381C447.835 222.448 447.906 222.531 447.958 222.626C448.01 222.72 448.044 222.824 448.056 222.931C448.068 223.039 448.059 223.147 448.029 223.251L447.146 226.339C447.128 226.404 447.102 226.466 447.069 226.524Z" fill="#B4CAD2"/>
<path d="M450.161 224.382C450.062 224.559 449.902 224.693 449.711 224.758C449.52 224.824 449.311 224.817 449.125 224.737C448.938 224.658 448.788 224.513 448.702 224.33C448.617 224.146 448.602 223.938 448.66 223.744L449.543 220.656C449.573 220.552 449.623 220.455 449.69 220.371C449.757 220.286 449.84 220.216 449.934 220.163C450.029 220.111 450.132 220.078 450.24 220.065C450.347 220.053 450.455 220.062 450.559 220.092C450.663 220.122 450.76 220.172 450.844 220.239C450.928 220.306 450.999 220.389 451.051 220.484C451.103 220.578 451.137 220.682 451.149 220.789C451.161 220.897 451.152 221.005 451.122 221.109L450.239 224.197C450.221 224.262 450.194 224.324 450.161 224.382Z" fill="#B4CAD2"/>
<path d="M453.185 221.872C453.087 222.05 452.927 222.184 452.735 222.25C452.544 222.316 452.334 222.309 452.148 222.229C451.962 222.15 451.811 222.005 451.726 221.821C451.64 221.637 451.625 221.428 451.684 221.235L452.567 218.146C452.627 217.937 452.768 217.76 452.958 217.654C453.149 217.548 453.374 217.523 453.583 217.583C453.792 217.643 453.969 217.784 454.075 217.975C454.181 218.165 454.206 218.39 454.146 218.6L453.262 221.688C453.244 221.752 453.218 221.814 453.185 221.872Z" fill="#B4CAD2"/>
<path d="M417.8 225.831L410.632 238.465C410.632 238.465 406.37 237.555 400.736 236.156C400.304 236.049 399.867 235.939 399.421 235.828C392.886 234.176 384.9 231.946 379.552 229.728C369.067 225.383 345.499 212.815 345.499 212.815C345.499 212.815 342.45 227.681 326.008 253.077C289.585 309.35 259.398 262.984 259.398 262.984C263.227 262.563 273.928 243.599 279.895 236.105C297.767 217.026 313.252 201.775 326.385 191.847C329.276 189.633 332.324 187.631 335.504 185.858C339.257 183.799 346.304 185.183 354.774 188.421C372.625 195.242 396.441 210.897 409.071 219.641C409.436 219.894 409.792 220.14 410.139 220.381C414.889 223.686 417.8 225.831 417.8 225.831Z" fill="#B73041"/>
<path d="M402.253 233.622C402.179 233.752 402.062 233.853 401.923 233.906C401.783 233.96 401.63 233.964 401.488 233.917C388.969 229.8 374.559 222.612 362.979 216.835C353.378 212.046 344.308 207.522 342.574 208.12C341.167 208.603 339.549 213.011 337.501 218.592C333.426 229.694 327.269 246.47 313.747 261.142C306.381 269.133 298.072 273.363 289.05 273.71C273.491 274.31 261.076 262.939 260.953 262.824C260.891 262.766 260.84 262.696 260.805 262.619C260.77 262.541 260.75 262.458 260.747 262.373C260.743 262.288 260.757 262.203 260.787 262.123C260.816 262.043 260.861 261.97 260.919 261.908C260.977 261.845 261.046 261.795 261.124 261.76C261.201 261.724 261.284 261.704 261.369 261.701C261.454 261.698 261.539 261.711 261.619 261.741C261.698 261.771 261.772 261.816 261.834 261.874C261.954 261.985 273.994 272.998 289.011 272.414C297.673 272.077 305.675 267.989 312.795 260.263C326.143 245.781 332.246 229.15 336.285 218.146C338.704 211.555 340.165 207.577 342.154 206.894C344.303 206.156 350.971 209.398 363.558 215.677C375.099 221.434 389.462 228.599 401.892 232.687C402.055 232.741 402.19 232.857 402.267 233.01C402.345 233.164 402.358 233.342 402.305 233.505C402.291 233.546 402.274 233.585 402.253 233.622Z" fill="#CC3742"/>
<path d="M410.139 220.38L400.736 236.157C400.305 236.049 399.868 235.94 399.422 235.828L409.073 219.64C409.437 219.893 409.792 220.14 410.139 220.38Z" fill="#CC3742"/>
<path d="M433.605 259.546L426.711 270.791L415.089 266.469L408.406 263.982L415.874 251.034L422.545 254.238L433.605 259.546Z" fill="#FFB27D"/>
<path d="M468.359 242.698L442.281 285.231C441.328 285.124 440.408 284.821 439.578 284.341C435.822 282.398 430.79 277.728 427.518 274.941C427.139 274.614 426.781 274.314 426.452 274.048C426.005 273.677 425.538 273.332 425.053 273.013C422.101 271.2 424.211 268.897 424.211 268.897C431.063 267.182 427.731 258.424 431.55 256.852C431.55 256.852 431.683 256.795 431.994 256.681C432.305 256.566 432.793 256.389 433.504 256.15C434.56 255.795 436.107 255.297 438.285 254.653C443.387 253.145 448.913 248.63 453.953 244.998C454.574 244.55 455.171 244.141 455.744 243.775C456.185 243.49 456.612 243.226 457.025 242.986C461.672 240.274 464.531 240.262 466.215 240.898C467.128 241.21 467.893 241.851 468.359 242.698Z" fill="white"/>
<path d="M457.024 242.987C457.167 244.674 457.272 248.231 455.886 249.991C455.359 250.543 454.765 251.028 454.12 251.435C451.885 252.979 448.057 255.164 444.646 256.958C441.933 258.383 439.373 259.625 437.429 260.456C434.243 261.814 433.36 261.832 432.877 261.646C431.393 261.077 431.537 258.733 431.992 256.682C432.303 256.565 432.792 256.39 433.503 256.151C432.928 258.33 432.825 260.156 433.34 260.39C433.96 260.479 437.352 259.296 444.243 255.659C449.502 252.882 454.154 250.028 454.837 249.164C455.737 248.021 455.833 245.549 455.742 243.776C456.184 243.491 456.611 243.227 457.024 242.987Z" fill="#B4CAD2"/>
<path d="M468.36 242.697L442.281 285.233C441.328 285.126 440.408 284.823 439.578 284.343L466.215 240.899C467.128 241.212 467.892 241.852 468.36 242.697Z" fill="#B4CAD2"/>
<path d="M444.939 280.893L444.165 282.157C443.499 280.011 442.015 277.474 438.764 275.689C434.441 273.314 430.065 274.097 427.517 274.943C427.138 274.614 426.778 274.314 426.449 274.049C429.049 273.046 434.156 271.803 439.335 274.645C441.887 275.992 443.875 278.208 444.939 280.893Z" fill="#B4CAD2"/>
<path d="M440.348 256.915C440.243 257.086 440.079 257.212 439.888 257.27C439.696 257.328 439.49 257.314 439.308 257.23C439.126 257.147 438.98 257 438.899 256.816C438.818 256.633 438.806 256.427 438.866 256.235L439.837 253.172C439.902 252.964 440.048 252.791 440.241 252.691C440.435 252.591 440.66 252.571 440.868 252.637C441.075 252.703 441.248 252.849 441.349 253.043C441.449 253.236 441.468 253.462 441.402 253.67L440.432 256.733C440.412 256.797 440.383 256.858 440.348 256.915Z" fill="#B4CAD2"/>
<path d="M436.52 258.197C436.415 258.368 436.251 258.494 436.059 258.552C435.868 258.61 435.661 258.596 435.479 258.512C435.297 258.429 435.152 258.281 435.071 258.098C434.989 257.915 434.978 257.708 435.038 257.517L436.008 254.454C436.074 254.246 436.22 254.073 436.413 253.973C436.607 253.872 436.832 253.853 437.04 253.919C437.247 253.985 437.42 254.131 437.521 254.324C437.621 254.518 437.64 254.744 437.574 254.951L436.604 258.015C436.584 258.079 436.556 258.14 436.52 258.197Z" fill="#B4CAD2"/>
<path d="M443.52 255.206C443.417 255.38 443.253 255.509 443.06 255.57C442.867 255.63 442.658 255.616 442.475 255.532C442.291 255.448 442.145 255.299 442.064 255.113C441.984 254.928 441.974 254.719 442.038 254.527L443.008 251.464C443.041 251.361 443.094 251.265 443.163 251.183C443.233 251.1 443.318 251.032 443.413 250.982C443.509 250.933 443.614 250.902 443.721 250.893C443.829 250.884 443.937 250.896 444.04 250.929C444.143 250.961 444.238 251.014 444.321 251.084C444.403 251.153 444.471 251.238 444.521 251.334C444.57 251.43 444.601 251.535 444.61 251.643C444.619 251.75 444.607 251.859 444.574 251.961L443.604 255.025C443.583 255.088 443.555 255.149 443.52 255.206Z" fill="#B4CAD2"/>
<path d="M446.63 253.462C446.526 253.635 446.362 253.765 446.169 253.825C445.976 253.885 445.768 253.872 445.584 253.788C445.4 253.703 445.254 253.554 445.173 253.368C445.093 253.183 445.084 252.974 445.147 252.782L446.118 249.719C446.15 249.616 446.203 249.52 446.272 249.438C446.342 249.355 446.427 249.287 446.523 249.237C446.618 249.188 446.723 249.157 446.83 249.148C446.938 249.139 447.046 249.151 447.149 249.184C447.252 249.216 447.347 249.269 447.43 249.338C447.512 249.408 447.58 249.493 447.63 249.589C447.679 249.685 447.71 249.79 447.719 249.897C447.728 250.005 447.716 250.113 447.683 250.216L446.713 253.279C446.693 253.343 446.665 253.405 446.63 253.462Z" fill="#B4CAD2"/>
<path d="M449.778 251.407C449.675 251.581 449.511 251.71 449.318 251.771C449.125 251.831 448.916 251.817 448.732 251.733C448.549 251.649 448.402 251.499 448.322 251.314C448.241 251.128 448.232 250.919 448.296 250.727L449.266 247.664C449.332 247.456 449.478 247.283 449.671 247.183C449.864 247.082 450.09 247.063 450.297 247.129C450.505 247.195 450.678 247.341 450.778 247.534C450.879 247.728 450.898 247.954 450.832 248.161L449.862 251.225C449.841 251.289 449.813 251.35 449.778 251.407Z" fill="#B4CAD2"/>
<path d="M452.876 248.983C452.772 249.157 452.608 249.286 452.415 249.347C452.222 249.407 452.014 249.393 451.83 249.309C451.646 249.225 451.5 249.075 451.419 248.89C451.339 248.704 451.33 248.495 451.394 248.303L452.364 245.24C452.397 245.137 452.449 245.042 452.519 244.959C452.588 244.877 452.673 244.808 452.769 244.759C452.865 244.709 452.969 244.679 453.077 244.67C453.184 244.66 453.292 244.672 453.395 244.705C453.498 244.738 453.593 244.79 453.676 244.86C453.758 244.929 453.826 245.015 453.876 245.11C453.925 245.206 453.956 245.311 453.965 245.419C453.974 245.526 453.962 245.635 453.93 245.737L452.959 248.801C452.939 248.865 452.911 248.926 452.876 248.983Z" fill="#B4CAD2"/>
<path d="M417.013 251.361L409.797 264.5C409.797 264.5 405.756 263.168 400.364 261.283C399.954 261.139 399.536 260.993 399.113 260.841C392.674 258.575 384.711 255.645 379.353 253.245C368.995 248.608 345.483 236.909 345.483 236.909C345.483 236.909 342.019 251.684 324.874 276.609C286.892 331.84 258.012 284.645 258.012 284.645C261.851 284.33 273.078 265.674 279.253 258.349C297.652 239.779 313.559 224.971 326.96 215.414C329.913 213.281 333.016 211.366 336.246 209.682C340.054 207.728 347.06 209.311 355.434 212.784C373.285 220.184 396.786 236.489 408.944 245.346C409.304 245.608 409.654 245.863 409.993 246.113C414.361 249.312 417.013 251.361 417.013 251.361Z" fill="#EB4B51"/>
<path d="M286.676 290.64C286.417 290.64 286.163 290.637 285.915 290.63C279.793 290.486 275.658 288.725 275.484 288.65L275.891 287.707C275.932 287.725 280.049 289.472 285.984 289.605C291.44 289.725 299.606 288.465 307.507 281.765C317.874 272.971 325.558 255.663 331.168 243.025C335.503 233.26 338.366 226.808 341.088 226.315C345.395 225.534 356.924 231.936 370.272 239.351C381.469 245.57 394.16 252.619 403.325 255.643L403.004 256.619C393.748 253.564 381.012 246.49 369.776 240.249C357.148 233.235 345.219 226.612 341.271 227.326C339.084 227.722 335.85 235.007 332.106 243.442C326.456 256.171 318.717 273.604 308.171 282.549C300.366 289.166 292.305 290.64 286.676 290.64Z" fill="#CC3742"/>
<path d="M401.636 259.299C401.558 259.427 401.439 259.524 401.298 259.574C401.157 259.623 401.004 259.623 400.863 259.572C388.464 255.105 374.261 247.516 362.848 241.418C353.385 236.361 344.446 231.584 342.695 232.132C341.276 232.574 339.535 236.936 337.332 242.458C332.948 253.44 326.325 270.038 312.397 284.324C304.811 292.106 296.387 296.1 287.359 296.195C271.789 296.358 259.697 284.643 259.577 284.525C259.516 284.465 259.468 284.394 259.434 284.316C259.401 284.238 259.384 284.153 259.383 284.068C259.382 283.983 259.398 283.899 259.43 283.82C259.462 283.741 259.509 283.669 259.568 283.608C259.628 283.548 259.699 283.499 259.777 283.466C259.855 283.433 259.939 283.415 260.024 283.414C260.109 283.413 260.194 283.429 260.272 283.461C260.351 283.493 260.423 283.54 260.484 283.6C260.601 283.715 272.328 295.063 287.355 294.898C296.022 294.803 304.136 290.942 311.469 283.419C325.216 269.316 331.783 252.863 336.128 241.976C338.731 235.456 340.301 231.521 342.31 230.892C344.479 230.215 351.053 233.643 363.459 240.271C374.835 246.35 388.993 253.915 401.303 258.35C401.393 258.383 401.475 258.435 401.542 258.503C401.61 258.572 401.661 258.654 401.693 258.745C401.725 258.835 401.737 258.932 401.727 259.027C401.718 259.123 401.687 259.215 401.638 259.297L401.636 259.299Z" fill="#CC3742"/>
<path d="M409.995 246.112L400.365 261.282C399.955 261.138 399.537 260.992 399.113 260.84L408.946 245.345C409.306 245.607 409.656 245.862 409.995 246.112Z" fill="#CC3742"/>
<path d="M285.702 239.521C279.487 251.95 282.789 302.579 270.885 298.245C242.333 287.85 220.959 267.991 209.935 254.012C208.558 252.269 206.951 250.481 205.202 248.672C202.623 246.01 199.731 243.295 196.794 240.584C185.756 230.395 174.072 220.267 176.024 213.14C177.776 206.742 182.198 203.579 184.694 199.498C186.237 196.968 188.251 194.757 190.626 192.986L204.466 182.681C204.466 182.681 214.643 175.387 218.144 174.854C221.644 174.321 229.228 179.834 238.865 182.185C248.502 184.535 255.312 189.755 258.431 199.821C261.143 208.578 259.501 205.873 268.512 215.665C279.552 227.663 296.114 218.699 285.702 239.521Z" fill="white"/>
<path d="M275.688 294.686C275.64 294.686 275.593 294.68 275.546 294.669C263.64 291.859 247.527 280.377 238.982 273.783C226.2 263.918 215.408 253.633 211.354 248.571C203.038 238.188 189.316 225.793 189.179 225.669C189.116 225.615 189.064 225.55 189.027 225.476C188.99 225.403 188.968 225.322 188.962 225.24C188.957 225.158 188.968 225.075 188.995 224.997C189.022 224.919 189.064 224.847 189.119 224.786C189.174 224.725 189.241 224.675 189.316 224.64C189.39 224.605 189.471 224.586 189.554 224.582C189.636 224.579 189.718 224.593 189.795 224.622C189.872 224.651 189.943 224.696 190.002 224.753C190.14 224.878 203.936 237.34 212.314 247.8C216.323 252.805 227.029 263.002 239.734 272.807C254.354 284.089 267.173 291.428 275.83 293.47C275.976 293.505 276.105 293.593 276.192 293.716C276.278 293.84 276.316 293.991 276.299 294.141C276.282 294.291 276.21 294.429 276.097 294.53C275.985 294.63 275.84 294.686 275.689 294.686L275.688 294.686Z" fill="#E0E0E0"/>
<path d="M192.262 228.814L191.241 228.654L190.295 228.496L188.43 228.174C187.193 227.955 185.966 227.726 184.74 227.49C182.29 227.018 179.845 226.513 177.405 225.975C172.521 224.894 167.637 223.68 162.711 222.226C160.245 221.497 157.769 220.704 155.266 219.808C152.764 218.912 150.231 217.916 147.629 216.71C146.327 216.108 145.005 215.447 143.652 214.691C142.203 213.889 140.802 213.002 139.457 212.035C138.732 211.51 137.992 210.932 137.234 210.273C136.412 209.563 135.636 208.8 134.911 207.989C134.039 207.016 133.259 205.963 132.58 204.845C131.745 203.47 131.098 201.988 130.657 200.44C130.411 199.572 130.235 198.686 130.132 197.79C130.078 197.332 130.045 196.872 130.031 196.41C130.021 196.191 130.023 195.917 130.027 195.66L130.035 195.268L130.057 194.895C130.089 194.388 130.144 193.926 130.215 193.462C130.288 193.02 130.371 192.578 130.47 192.175C130.648 191.423 130.876 190.685 131.152 189.964C131.278 189.624 131.407 189.325 131.541 189.013C131.675 188.725 131.812 188.419 131.948 188.154L132.156 187.748L132.363 187.365C132.505 187.104 132.642 186.877 132.784 186.633C133.301 185.781 133.865 184.959 134.475 184.17C135.492 182.857 136.596 181.613 137.781 180.448C138.868 179.369 139.941 178.404 141.012 177.492C143.151 175.679 145.273 174.084 147.396 172.58C149.52 171.075 151.642 169.675 153.772 168.326C156.159 166.816 158.554 165.37 160.956 163.986C161.076 164.428 161.034 164.899 160.837 165.313C159.917 167.17 161.909 176.011 167.81 176.102C170.63 176.147 171.946 177.781 173.045 179.71C170.377 181.492 167.763 183.317 165.236 185.182C163.434 186.516 161.676 187.873 160.006 189.247C158.335 190.622 156.752 192.018 155.355 193.395C155.076 193.673 154.802 193.948 154.543 194.22C155.258 194.548 156.039 194.873 156.867 195.185C158.639 195.86 160.589 196.482 162.612 197.052C164.635 197.622 166.736 198.139 168.874 198.615C173.156 199.566 177.585 200.354 182.053 201.026C184.289 201.362 186.538 201.666 188.785 201.941C189.909 202.077 191.033 202.209 192.152 202.328L193.821 202.501L194.643 202.58L195.044 202.616L195.236 202.633L195.392 202.645C201.962 213.619 200.152 222.116 192.262 228.814Z" fill="#FFB27D"/>
<path d="M165.227 197.749C165.227 197.749 162.01 211.837 157.676 220.643C157.676 220.643 160.563 223.998 168.545 223.848C168.545 223.848 173.68 214.503 175.366 199.816C175.366 199.816 170.956 196.659 165.227 197.749Z" fill="#EB4B51"/>
<path d="M213.043 210.802L222.482 218.658C222.482 218.658 234.949 205.09 243.958 196.9L234.518 190.268C234.518 190.268 221.045 201.619 213.043 210.802Z" fill="#E0E0E0"/>
<path d="M214.003 177.776C214.003 177.776 225.357 176.826 223.196 167.648C222.26 163.676 222.964 164.135 225.429 159.843C227.894 155.551 227.505 154.206 225.888 151.361C224.272 148.517 220.889 148.359 221.594 145.093C222.523 140.791 220.07 134.609 214.997 133.393C210.094 132.217 209.629 132.387 208.918 129.929C207.991 126.719 203.167 122.512 196.455 125.039C190.682 127.213 190.767 124.07 186.21 124.002C177.723 123.875 175.899 131.731 173.283 132.754C170.667 133.778 166.032 135.17 164.705 139.429C163.06 144.711 166.692 147.58 163.134 149.009C159.577 150.438 156.832 154.679 157.909 157.946C158.985 161.213 161.752 163.458 160.833 165.315C159.914 167.171 161.905 176.012 167.807 176.104C175.872 176.23 171.639 189.357 185.204 185.204C197.397 181.471 214.003 177.776 214.003 177.776Z" fill="#2C3A64"/>
<path d="M211.438 155.696C211.438 155.696 213.447 151.197 216.219 154.31C218.99 157.424 219.776 165.122 214.782 165.273L211.438 155.696Z" fill="#FFB27D"/>
<path d="M209.418 176.382L212.668 186.104C212.668 186.104 211.109 197.528 192.433 191.642C194.442 187.466 191.159 180.068 188.855 176.593C190.026 176.707 191.185 176.923 192.318 177.239C192.782 177.33 193.251 177.39 193.723 177.42C198.113 177.93 204.574 178.203 209.418 176.382Z" fill="#FFB27D"/>
<path d="M209.415 176.382L210.956 180.992C206.424 181.276 198.095 181.171 192.316 177.24C192.755 177.302 193.223 177.362 193.721 177.421C198.11 177.93 204.571 178.203 209.415 176.382Z" fill="#E59A67"/>
<path d="M216.982 170.656C211.123 181.74 189.575 176.782 188.881 176.619C188.875 176.618 188.869 176.617 188.863 176.615C188.467 175.888 188.091 175.164 187.732 174.444C184.901 168.792 182.933 162.745 181.894 156.508C180.881 153.632 180.814 150.507 181.704 147.59C182.593 144.673 184.392 142.118 186.837 140.299C192.059 136.478 198.033 137.53 201.461 137.59C206.632 137.68 211.396 142.958 213.952 151.702C217.092 162.434 218.435 167.903 216.982 170.656Z" fill="#FFB27D"/>
<path d="M191.195 171.054C191.178 171.194 190.697 175.013 188.883 176.619C188.881 176.619 188.883 176.621 188.88 176.622L188.866 176.614C188.47 175.888 188.093 175.164 187.734 174.444C189.18 173.657 190.378 172.484 191.195 171.054Z" fill="#E59A67"/>
<path d="M186.922 163.914C186.922 163.914 180.748 159.223 178.849 164.866C177.284 169.516 185.276 178.136 189.589 173.139L186.922 163.914Z" fill="#FFB27D"/>
<path d="M188.462 171.513C188.479 171.509 188.495 171.503 188.512 171.496C188.628 171.448 188.721 171.355 188.77 171.239C188.818 171.122 188.819 170.991 188.771 170.874C188.182 169.428 187.224 168.162 185.994 167.203C184.763 166.244 183.303 165.624 181.759 165.407C181.634 165.395 181.509 165.434 181.412 165.514C181.315 165.594 181.253 165.709 181.241 165.835C181.228 165.96 181.266 166.085 181.345 166.183C181.424 166.281 181.539 166.343 181.664 166.356C183.037 166.556 184.333 167.111 185.425 167.968C186.517 168.824 187.366 169.951 187.889 171.237C187.933 171.346 188.017 171.434 188.122 171.485C188.228 171.536 188.349 171.546 188.462 171.513Z" fill="#E59A67"/>
<path d="M183.391 169.973C183.496 169.943 183.587 169.877 183.649 169.787C183.953 169.349 184.931 168.206 185.777 168.18C185.904 168.176 186.023 168.122 186.11 168.03C186.196 167.937 186.243 167.815 186.239 167.688C186.235 167.562 186.181 167.442 186.089 167.355C185.997 167.269 185.874 167.222 185.748 167.226C184.271 167.273 183.006 169.042 182.866 169.244C182.81 169.325 182.78 169.421 182.781 169.52C182.782 169.618 182.813 169.714 182.871 169.794C182.928 169.874 183.009 169.934 183.102 169.966C183.196 169.998 183.296 170.001 183.391 169.973Z" fill="#CC7A41"/>
<path d="M182.674 166.582C182.674 166.582 180.644 167.477 181.844 168.99C183.044 170.502 184.733 169.12 184.733 169.12L187.554 172.955C188.035 173.593 188.669 173.864 189.286 173.357C188.473 171.531 187.375 169.847 186.033 168.367C186.033 168.367 184.215 166.612 182.674 166.582Z" fill="white"/>
<path d="M179.264 150.816C179.264 150.816 186.956 154.61 189.121 152.494C191.286 150.377 185.69 146.538 185.69 146.538C185.69 146.538 196.121 148.815 199.128 146.236C202.136 143.658 194.706 141.244 194.706 141.244C194.706 141.244 203.361 145.381 207.174 143.882C210.988 142.383 205.64 138.571 205.64 138.571C205.64 138.571 211.229 144.471 213.421 143.189C215.613 141.908 209.559 132.868 200.743 131.75C191.926 130.632 172.151 137.025 179.264 150.816Z" fill="#2C3A64"/>
<path d="M185.191 151.386C185.191 151.386 190.868 163.518 187.686 164.503C184.505 165.488 179.853 161.472 179.266 150.816L185.191 151.386Z" fill="#2C3A64"/>
<path d="M212.214 163.984C212.214 163.984 212.227 165.275 212.261 165.904C212.295 166.532 209.211 167.993 207.956 167.853C206.913 167.736 205.282 166.828 205.358 166.856C205.358 166.856 210.646 164.252 212.214 163.984Z" fill="white"/>
</g>
<defs>
<clipPath id="clip0">
<rect width="560" height="308" fill="white"/>
</clipPath>
</defs>
</svg>
