<svg width="36" height="36" viewBox="0 0 36 36" fill="none" xmlns="http://www.w3.org/2000/svg">
<g clip-path="url(#clip0)">
<path d="M17.9972 4.45068C17.9972 4.45068 17.9972 4.45068 17.9972 4.45068C13.461 4.45068 9.20508 6.47124 6.01331 10.1402C5.66744 10.5377 5.66744 11.1293 6.01331 11.5269L11.7695 18.1435C11.9702 18.3742 12.2609 18.5066 12.5666 18.5066H23.428C23.7337 18.5066 24.0243 18.3742 24.225 18.1435L29.9812 11.5269C30.3271 11.1293 30.3271 10.5376 29.9812 10.1401C26.7894 6.47124 22.5333 4.45075 17.9972 4.45068ZM17.3765 16.3938L17.9972 15.0493L18.6178 16.3938H17.3765ZM22.9467 16.3938H20.945L18.9563 12.0862C18.7836 11.7122 18.4092 11.4726 17.9972 11.4726C17.5852 11.4726 17.2107 11.7122 17.038 12.0862L15.0493 16.3938H13.0477L8.2274 10.853C8.82963 10.2347 9.46862 9.67928 10.1381 9.18883L11.0476 10.2798C11.2566 10.5305 11.5569 10.6598 11.8596 10.6598C12.0981 10.6598 12.338 10.5794 12.5354 10.4148C12.9836 10.0411 13.044 9.37503 12.6705 8.92691L11.9484 8.06072C13.5128 7.24426 15.1975 6.7495 16.9407 6.60703V7.9081C16.9407 8.49152 17.4137 8.96451 17.9972 8.96451C18.5806 8.96451 19.0536 8.49152 19.0536 7.9081V6.60703C20.7968 6.7495 22.4815 7.24426 24.046 8.06072L23.3239 8.92691C22.9502 9.37503 23.0107 10.0412 23.4588 10.4148C23.6564 10.5794 23.8962 10.6598 24.1348 10.6598C24.4374 10.6598 24.7378 10.5304 24.9467 10.2798L25.8562 9.18883C26.5256 9.67928 27.1647 10.2347 27.7668 10.853L22.9467 16.3938Z" fill="#EB4B51"/>
<path d="M32.8139 2.55257C31.3515 0.930345 29.2602 0 27.0762 0H8.91997C6.73602 0 4.64475 0.930345 3.18239 2.5525C1.72004 4.17465 1.01084 6.35093 1.23649 8.52326L3.37199 29.0736C3.7823 33.0223 7.08548 36 11.0555 36H24.9408C28.9107 36 32.2139 33.0223 32.6243 29.0736L34.7597 8.52333C34.9854 6.351 34.2761 4.17472 32.8139 2.55257ZM32.6581 8.30486L30.5227 28.8552C30.2247 31.7239 27.8249 33.8872 24.9408 33.8872H19.0545V27.5509C19.0545 26.9675 18.5815 26.4945 17.9981 26.4945C17.4147 26.4945 16.9417 26.9675 16.9417 27.5509V33.8872H11.0555C8.17133 33.8872 5.77159 31.7239 5.47347 28.8552L3.33804 8.30486C3.17401 6.72666 3.68926 5.1457 4.75166 3.96717C5.81405 2.78871 7.33331 2.11282 8.91997 2.11282H27.0762C28.6629 2.11282 30.1822 2.78871 31.2446 3.96724C32.307 5.1457 32.8222 6.72673 32.6581 8.30486Z" fill="#EB4B51"/>
</g>
<defs>
<clipPath id="clip0">
<rect width="36" height="36" fill="white"/>
</clipPath>
</defs>
</svg>
