<svg width="36" height="36" viewBox="0 0 36 36" fill="none" xmlns="http://www.w3.org/2000/svg">
<path d="M34.2904 17.2917C34.687 17.2917 34.9987 17.6034 34.9987 18C34.9987 18.3967 34.687 18.7084 34.2904 18.7084H33.582V17.2917H34.2904Z" fill="#188546" stroke="#188546" stroke-width="0.5"/>
<path d="M18.707 17.2917H33.5819V18.7084H18.707V17.2917Z" fill="#188546" stroke="#188546" stroke-width="0.5"/>
<path d="M31.4582 34.9998H18C18.3967 34.9998 18.7083 34.6882 18.7083 34.2915V33.5832H31.4582C32.634 33.5832 33.5832 32.634 33.5832 31.4582V18.7083H34.2915C34.6882 18.7083 34.9998 18.3967 34.9998 18V31.4582C34.9998 33.4132 33.4132 34.9998 31.4582 34.9998Z" fill="#188546" stroke="#188546" stroke-width="0.5"/>
<path d="M34.9998 4.54179V18C34.9998 17.6033 34.6882 17.2917 34.2915 17.2917H33.5832V4.54179C33.5832 3.36597 32.634 2.41681 31.4582 2.41681H18.7083V1.70848C18.7083 1.31182 18.3967 1.00016 18 1.00016H31.4582C33.4132 1.00016 34.9998 2.58681 34.9998 4.54179Z" fill="#188546" stroke="#188546" stroke-width="0.5"/>
<path d="M29.332 9.50008C29.7286 9.50008 30.0403 9.81174 30.0403 10.2084C30.0403 10.6051 29.7286 10.9167 29.332 10.9167H23.6654C23.2687 10.9167 22.957 10.6051 22.957 10.2084C22.957 9.81174 23.2687 9.50008 23.6654 9.50008H29.332Z" fill="#188546" stroke="#188546" stroke-width="0.5"/>
<path d="M29.332 23.6667C29.7286 23.6667 30.0403 23.9783 30.0403 24.375C30.0403 24.7716 29.7286 25.0833 29.332 25.0833H23.6654C23.2687 25.0833 22.957 24.7716 22.957 24.375C22.957 23.9783 23.2687 23.6667 23.6654 23.6667H29.332Z" fill="#188546" stroke="#188546" stroke-width="0.5"/>
<path d="M29.332 27.9166C29.7286 27.9166 30.0403 28.2283 30.0403 28.6249C30.0403 29.0216 29.7286 29.3333 29.332 29.3333H23.6654C23.2687 29.3333 22.957 29.0216 22.957 28.6249C22.957 28.2283 23.2687 27.9166 23.6654 27.9166H29.332Z" fill="#188546" stroke="#188546" stroke-width="0.5"/>
<path d="M18.7096 33.5831V34.2914C18.7096 34.6881 18.398 34.9998 18.0013 34.9998C17.6046 34.9998 17.293 34.6881 17.293 34.2914V33.5831H18.7096Z" fill="#188546" stroke="#188546" stroke-width="0.5"/>
<path d="M17.293 18.7083H18.7096V33.5831H17.293V18.7083Z" fill="#188546" stroke="#188546" stroke-width="0.5"/>
<path d="M17.293 17.2917H18.7096V18.7084H17.293V17.2917Z" fill="#188546" stroke="#188546" stroke-width="0.5"/>
<path d="M17.293 2.41685H18.7096V17.2917H17.293V2.41685Z" fill="#188546" stroke="#188546" stroke-width="0.5"/>
<path d="M18.7096 1.70848V2.41681H17.293V1.70848C17.293 1.31182 17.6046 1.00016 18.0013 1.00016C18.398 1.00016 18.7096 1.31182 18.7096 1.70848Z" fill="#188546" stroke="#188546" stroke-width="0.5"/>
<path d="M2.41797 17.2917H17.2928V18.7084H2.41797V17.2917Z" fill="#188546" stroke="#188546" stroke-width="0.5"/>
<path d="M12.332 9.50008C12.7287 9.50008 13.0403 9.81174 13.0403 10.2084C13.0403 10.6051 12.7287 10.9167 12.332 10.9167H10.207V9.50008H12.332Z" fill="#188546" stroke="#188546" stroke-width="0.5"/>
<path d="M12.1208 28.1291C12.4041 28.3982 12.4041 28.8516 12.1208 29.1207C11.9933 29.2624 11.8092 29.3332 11.625 29.3332C11.4408 29.3332 11.2567 29.2624 11.1292 29.1207L9.5 27.4916L10.4917 26.4999L12.1208 28.1291Z" fill="#188546" stroke="#188546" stroke-width="0.5"/>
<path d="M11.1292 23.8792C11.3983 23.5958 11.8516 23.5958 12.1208 23.8792C12.4041 24.1483 12.4041 24.6016 12.1208 24.8708L10.4917 26.5L9.5 25.5083L11.1292 23.8792Z" fill="#188546" stroke="#188546" stroke-width="0.5"/>
<path d="M8.50391 26.4984L9.49562 25.5067L10.4873 26.4984L9.49562 27.4901L8.50391 26.4984Z" fill="#188546" stroke="#188546" stroke-width="0.5"/>
<path d="M10.2096 10.9168V13.0418C10.2096 13.4384 9.89796 13.7501 9.5013 13.7501C9.10463 13.7501 8.79297 13.4384 8.79297 13.0418V10.9168H10.2096Z" fill="#188546" stroke="#188546" stroke-width="0.5"/>
<path d="M8.79297 9.50008H10.2096V10.9167H8.79297V9.50008Z" fill="#188546" stroke="#188546" stroke-width="0.5"/>
<path d="M10.2096 7.37514V9.50012H8.79297V7.37514C8.79297 6.97848 9.10463 6.66682 9.5013 6.66682C9.89796 6.66682 10.2096 6.97848 10.2096 7.37514Z" fill="#188546" stroke="#188546" stroke-width="0.5"/>
<path d="M9.50128 25.5083L8.50962 26.5L6.88047 24.8708C6.59714 24.6016 6.59714 24.1483 6.88047 23.8792C7.14963 23.5958 7.60296 23.5958 7.87213 23.8792L9.50128 25.5083Z" fill="#188546" stroke="#188546" stroke-width="0.5"/>
<path d="M8.79034 9.50008V10.9167H6.66536C6.26869 10.9167 5.95703 10.6051 5.95703 10.2084C5.95703 9.81174 6.26869 9.50008 6.66536 9.50008H8.79034Z" fill="#188546" stroke="#188546" stroke-width="0.5"/>
<path d="M7.87213 29.1207C7.74463 29.2624 7.56046 29.3332 7.3763 29.3332C7.19213 29.3332 7.00797 29.2624 6.88047 29.1207C6.59714 28.8516 6.59714 28.3982 6.88047 28.1291L8.50962 26.4999L9.50128 27.4916L7.87213 29.1207Z" fill="#188546" stroke="#188546" stroke-width="0.5"/>
<path d="M2.41665 17.2917V18.7084H1.70833C1.31166 18.7084 1 18.3967 1 18C1 17.6034 1.31166 17.2917 1.70833 17.2917H2.41665Z" fill="#188546" stroke="#188546" stroke-width="0.5"/>
<path d="M1 4.54164C1 2.58665 2.58665 1 4.54164 1H17.9998C17.6032 1 17.2915 1.31166 17.2915 1.70833V2.41665H4.54164C3.36581 2.41665 2.41665 3.36581 2.41665 4.54164V17.2915H1.70833C1.31166 17.2915 1 17.6032 1 17.9998V4.54164Z" fill="#188546" stroke="#188546" stroke-width="0.5"/>
<path d="M2.41665 31.4582C2.41665 32.634 3.36581 33.5832 4.54164 33.5832H17.2915V34.2915C17.2915 34.6882 17.6032 34.9998 17.9998 34.9998H4.54164C2.58665 34.9998 1 33.4132 1 31.4582V18C1 18.3967 1.31166 18.7083 1.70833 18.7083H2.41665V31.4582Z" fill="#188546" stroke="#188546" stroke-width="0.5"/>
</svg>
