<svg width="36" height="36" viewBox="0 0 36 36" fill="none" xmlns="http://www.w3.org/2000/svg">
<path d="M2.25 9H22.5V17C22.5 17.5523 22.9477 18 23.5 18H23.75C24.3023 18 24.75 17.5523 24.75 17V1C24.75 0.447716 24.3023 0 23.75 0H1C0.447715 0 0 0.447715 0 1V26C0 26.5523 0.447715 27 1 27H10.25C10.8023 27 11.25 26.5523 11.25 26V25.75C11.25 25.1977 10.8023 24.75 10.25 24.75H2.25V9ZM2.25 2.25H22.5V6.75H2.25V2.25Z" fill="#EB4B51"/>
<path d="M6.75 11.25H4.5V13.5H6.75V11.25Z" fill="#EB4B51"/>
<path d="M11.25 11.25H9V13.5H11.25V11.25Z" fill="#EB4B51"/>
<path d="M15.75 11.25H13.5V13.5H15.75V11.25Z" fill="#EB4B51"/>
<path d="M20.25 11.25H18V13.5H20.25V11.25Z" fill="#EB4B51"/>
<path d="M6.75 15.75H4.5V18H6.75V15.75Z" fill="#EB4B51"/>
<path d="M11.25 15.75H9V18H11.25V15.75Z" fill="#EB4B51"/>
<path d="M15.75 15.75H13.5V18H15.75V15.75Z" fill="#EB4B51"/>
<path d="M20.25 15.75H18V18H20.25V15.75Z" fill="#EB4B51"/>
<path d="M6.75 20.25H4.5V22.5H6.75V20.25Z" fill="#EB4B51"/>
<path d="M11.25 20.25H9V22.5H11.25V20.25Z" fill="#EB4B51"/>
<path d="M36 27V25.875C35.9963 22.7699 33.4801 20.2537 30.375 20.25H19.125C16.0199 20.2537 13.5037 22.7699 13.5 25.875V27H14.625V29.25H13.5V30.375C13.5037 33.4801 16.0199 35.9963 19.125 36H30.375C33.4801 35.9963 35.9963 33.4801 36 30.375V29.25H34.875V27H36ZM30.375 33.75H19.125C17.6951 33.7482 16.4209 32.8474 15.9424 31.5H33.5576C33.0791 32.8474 31.8049 33.7482 30.375 33.75ZM16.875 29.25V27H32.625V29.25H16.875ZM15.9424 24.75C16.4209 23.4026 17.6951 22.5018 19.125 22.5H30.375C31.8049 22.5018 33.0791 23.4026 33.5576 24.75H15.9424Z" fill="#EB4B51"/>
</svg>
