<svg width="36" height="36" viewBox="0 0 36 36" fill="none" xmlns="http://www.w3.org/2000/svg">
<g clip-path="url(#clip0)">
<path d="M34.4426 9.9373V3.51597H30.3376V0H3.20256V7.09059H1.55859V9.20005H3.20256V12.0129H1.55859V14.1224H3.20256V16.9353H1.55859V19.0447H3.20256V21.8776H1.55859V23.9871H3.20256V26.8H1.55859V28.9094H3.20256V36H30.3376V26.9994H34.4426V20.578H30.3376V18.4683H34.4426V12.047H30.3376V9.93723H34.4426V9.9373ZM32.3332 5.62543V7.82784H30.3376V5.62543H32.3332ZM28.2281 33.8905H5.31202V28.9094H7.07004V26.8H5.31202V23.9871H7.07004V21.8776H5.31202V19.0447H7.07004V16.9353H5.31202V14.1224H7.07004V12.0129H5.31202V9.20005H7.07004V7.09059H5.31202V2.10946H28.2281V33.8905ZM32.3332 22.6875V24.8899H30.3376V22.6875H32.3332ZM32.3332 14.1565V16.3589H30.3376V14.1565H32.3332Z" fill="#188546"/>
<path d="M24.065 7.09059H10.8789V14.9051H24.065V7.09059ZM21.9555 12.7956H12.9884V9.20005H21.9555V12.7956Z" fill="#188546"/>
</g>
<defs>
<clipPath id="clip0">
<rect width="36" height="36" fill="white"/>
</clipPath>
</defs>
</svg>
