<svg width="36" height="36" viewBox="0 0 36 36" fill="none" xmlns="http://www.w3.org/2000/svg">
<path d="M10.1244 31.6755H11.5938V33.1449H10.1244V31.6755Z" fill="#219653"/>
<path d="M23.3381 9.31181C28.1889 11.4946 29.3138 16.1529 29.3594 16.3502L27.2118 16.8459C27.2031 16.8082 26.2983 13.0608 22.4337 11.3217L23.3381 9.31181Z" fill="#219653"/>
<path d="M1.81969 18.5356C2.12245 14.6521 3.79139 11.0434 6.58702 8.27831C9.2828 5.61206 12.7522 4.00254 16.4831 3.65843C16.0958 3.27059 15.8563 2.73516 15.8563 2.14369C15.8563 0.959836 16.816 0 18 0C19.184 0 20.1437 0.959836 20.1437 2.14369C20.1437 2.73509 19.9042 3.27059 19.5169 3.65843C23.2478 4.00254 26.7171 5.61206 29.4129 8.27831C32.2086 11.0434 33.8775 14.6521 34.1803 18.5356H36V20.7397H34.2432H32.3265V22.2821L27.3014 24.7864L14.8741 26.7117L14.8312 26.7176C14.8271 26.718 14.3985 26.7786 13.9904 27.0061C13.3821 27.3452 13.3041 27.7828 13.3041 28.1261V28.6237H14.6133V36H2.13673V28.6238H3.82008V22.8593L5.97284 20.7397H1.7569H0V18.5356H1.81969ZM14.5558 24.5306L26.6251 22.6607L30.1224 20.9179V20.7397H9.11419L6.02409 23.7822V28.6237H11.1V28.1261C11.0999 25.6126 13.3465 24.6783 14.5558 24.5306ZM4.34074 30.8683V33.7959H12.4091V30.8683H4.34074ZM8.21116 18.5356H31.9684C31.314 11.4135 25.2679 5.79213 18 5.79213C10.7321 5.79213 4.68598 11.4135 4.03158 18.5356H8.21116V18.5356Z" fill="#188546"/>
</svg>
