<svg width="36" height="36" viewBox="0 0 36 36" fill="none" xmlns="http://www.w3.org/2000/svg">
<path d="M24.9859 2.11102C24.3174 0.856384 22.996 0 21.478 0H14.5171C12.9987 0 11.6774 0.856384 11.0089 2.11102H3.16406V36H32.831V2.11102H24.9859ZM26.5029 8.43915V29.6719H9.49219V8.43915H26.5029ZM14.5171 2.10938H21.478C22.5052 2.10938 23.3413 2.94516 23.3413 3.97266V6.32977H12.6538V3.97266C12.6538 2.94516 13.4896 2.10938 14.5171 2.10938ZM30.7216 33.8906H5.27344V4.2204H10.5444V6.32977H7.38281V31.7812H28.6122V6.32977H25.4507V4.2204H30.7216V33.8906Z" fill="#EB4B51"/>
<path d="M15.8281 10.998H24.3925V13.1074H15.8281V10.998Z" fill="#EB4B51"/>
<path d="M11.6055 10.998H13.7165V13.1074H11.6055V10.998Z" fill="#EB4B51"/>
<path d="M15.8281 15.6665H24.3925V17.7759H15.8281V15.6665Z" fill="#EB4B51"/>
<path d="M11.6055 15.6665H13.7165V17.7759H11.6055V15.6665Z" fill="#EB4B51"/>
<path d="M15.8281 20.3352H24.3925V22.4446H15.8281V20.3352Z" fill="#EB4B51"/>
<path d="M11.6055 20.3352H13.7165V22.4446H11.6055V20.3352Z" fill="#EB4B51"/>
<path d="M15.8281 25.0034H24.3925V27.1128H15.8281V25.0034Z" fill="#EB4B51"/>
<path d="M11.6055 25.0034H13.7165V27.1128H11.6055V25.0034Z" fill="#EB4B51"/>
</svg>
