<svg width="36" height="36" viewBox="0 0 36 36" fill="none" xmlns="http://www.w3.org/2000/svg">
<path d="M28.1452 0H3.81617C3.22189 0 2.73828 0.483538 2.73828 1.07789V34.922C2.73828 35.5163 3.22182 35.9999 3.81617 35.9999H28.1451C30.9649 35.9999 33.2589 33.7059 33.2589 30.8861V5.11382C33.259 2.29401 30.965 0 28.1452 0ZM6.27478 33.8877H4.85053V2.11218H6.27478V33.8877ZM31.1468 30.8861C31.1468 32.5413 29.8003 33.8878 28.1451 33.8878H8.38683V2.11218H28.1451C29.8002 2.11218 31.1468 3.45867 31.1468 5.11382V30.8861Z" fill="#188546"/>
<path d="M24.5502 13.8152C24.4011 13.8152 24.2532 13.8258 24.1076 13.8465C23.7094 11.9631 22.0372 10.5651 20.0542 10.5651C18.3215 10.5651 16.8346 11.6345 16.2168 13.1476C15.9127 13.0633 15.5961 13.0192 15.274 13.0192C13.3308 13.0192 11.75 14.6 11.75 16.5431C11.75 18.1186 12.7891 19.4555 14.2179 19.9053V23.4819C14.2179 24.0652 14.6907 24.538 15.274 24.538H24.5502C25.1335 24.538 25.6063 24.0652 25.6063 23.4819V19.883C26.8117 19.449 27.6761 18.2942 27.6761 16.9411C27.6761 15.2175 26.2738 13.8152 24.5502 13.8152ZM23.4941 22.4258H16.3301V20.0671H23.4941V22.4258ZM24.5502 17.9549H15.274C14.4955 17.9549 13.8621 17.3216 13.8621 16.543C13.8621 15.7644 14.4955 15.1311 15.274 15.1311C15.6315 15.1311 15.9613 15.2779 16.2345 15.5081C16.9188 16.085 18.0002 15.8262 18.0226 14.7087C18.0226 13.5885 18.9339 12.6772 20.0541 12.6772C21.1283 12.6772 22.0169 13.513 22.082 14.5823C22.0839 14.6826 22.0854 15.3212 22.0857 15.5231C22.0857 16.0548 22.5143 16.5364 23.046 16.5364C23.3395 16.5364 23.6446 16.4048 23.8596 16.1978L23.8605 16.1981C24.0485 16.0236 24.2933 15.9274 24.5501 15.9274C25.1091 15.9274 25.5638 16.3822 25.5638 16.9411C25.5638 17.5 25.1091 17.9549 24.5502 17.9549Z" fill="#188546"/>
</svg>
