<svg width="36" height="36" viewBox="0 0 36 36" fill="none" xmlns="http://www.w3.org/2000/svg">
<path d="M34.9453 6.48047H30.7266C30.1441 6.48047 29.6719 6.95269 29.6719 7.53516V11.7539H27.5625V5.42578C27.5625 4.84331 27.0903 4.37109 26.5078 4.37109C25.9253 4.37109 25.4531 4.84331 25.4531 5.42578V11.7539H10.5469V5.42578C10.5469 4.84331 10.0747 4.37109 9.49219 4.37109C8.90972 4.37109 8.4375 4.84331 8.4375 5.42578V11.7539H6.32812V7.53516C6.32812 6.95269 5.85591 6.48047 5.27344 6.48047H1.05469C0.472219 6.48047 0 6.95269 0 7.53516V18.082C0 18.6645 0.472219 19.1367 1.05469 19.1367H5.27344C5.85591 19.1367 6.32812 18.6645 6.32812 18.082V13.8633H8.4375V29.5195H7.38281C6.80034 29.5195 6.32812 29.9917 6.32812 30.5742C6.32812 31.1566 6.80034 31.6289 7.38281 31.6289H9.49219C10.0747 31.6289 10.5469 31.1566 10.5469 30.5742V27.4101H13.7109V30.5742C13.7109 31.1566 14.1832 31.6289 14.7656 31.6289H21.2344C21.8168 31.6289 22.2891 31.1566 22.2891 30.5742V27.4101H25.4531V30.5742C25.4531 31.1566 25.9253 31.6289 26.5078 31.6289H28.6172C29.1997 31.6289 29.6719 31.1566 29.6719 30.5742C29.6719 29.9917 29.1997 29.5195 28.6172 29.5195H27.5625V13.8633H29.6719V18.082C29.6719 18.6645 30.1441 19.1367 30.7266 19.1367H34.9453C35.5278 19.1367 36 18.6645 36 18.082V7.53516C36 6.95269 35.5278 6.48047 34.9453 6.48047ZM4.21875 17.0273H2.10938V8.58984H4.21875V17.0273ZM20.1797 29.5195H15.8203V27.4101H20.1797V29.5195ZM10.5469 25.3007V23.1914H25.4531V25.3007H10.5469ZM21.2344 21.082H14.7656V18.9726H21.2344V21.082ZM25.4531 21.082H23.3438V17.9179C23.3438 17.3355 22.8715 16.8632 22.2891 16.8632H13.7109C13.1285 16.8632 12.6562 17.3355 12.6562 17.9179V21.082H10.5469V13.8633H25.4531V21.082ZM33.8906 17.0273H31.7812V8.58984H33.8906V17.0273Z" fill="#EB4B51"/>
</svg>
